<svg width="538" height="538" viewBox="0 0 538 538" fill="none" xmlns="http://www.w3.org/2000/svg">
<path d="M19.0137 0C19.0051 0.165593 19 0.33227 19 0.5C19 5.74671 23.2533 10 28.5 10C33.7467 10 38 5.74671 38 0.5C38 0.33227 37.9949 0.165593 37.9863 0H56.0137C56.0051 0.165593 56 0.33227 56 0.5C56 5.74671 60.2533 10 65.5 10C70.7467 10 75 5.74671 75 0.5C75 0.33227 74.9949 0.165593 74.9863 0H93.0137C93.0051 0.165593 93 0.33227 93 0.5C93 5.74671 97.2533 10 102.5 10C107.747 10 112 5.74671 112 0.5C112 0.33227 111.995 0.165593 111.986 0H130.014C130.005 0.165593 130 0.33227 130 0.5C130 5.74671 134.253 10 139.5 10C144.747 10 149 5.74671 149 0.5C149 0.33227 148.995 0.165593 148.986 0H167.014C167.005 0.165593 167 0.33227 167 0.5C167 5.74671 171.253 10 176.5 10C181.747 10 186 5.74671 186 0.5C186 0.33227 185.995 0.165593 185.986 0H204.014C204.005 0.165593 204 0.33227 204 0.5C204 5.74671 208.253 10 213.5 10C218.747 10 223 5.74671 223 0.5C223 0.33227 222.995 0.165593 222.986 0H241.014C241.005 0.165593 241 0.33227 241 0.5C241 5.74671 245.253 10 250.5 10C255.747 10 260 5.74671 260 0.5C260 0.33227 259.995 0.165593 259.986 0H278.014C278.005 0.165593 278 0.33227 278 0.5C278 5.74671 282.253 10 287.5 10C292.747 10 297 5.74671 297 0.5C297 0.33227 296.995 0.165593 296.986 0H315.014C315.005 0.165593 315 0.33227 315 0.5C315 5.74671 319.253 10 324.5 10C329.747 10 334 5.74671 334 0.5C334 0.33227 333.995 0.165593 333.986 0H352.014C352.005 0.165593 352 0.33227 352 0.5C352 5.74671 356.253 10 361.5 10C366.747 10 371 5.74671 371 0.5C371 0.33227 370.995 0.165593 370.986 0H389.014C389.005 0.165593 389 0.33227 389 0.5C389 5.74671 393.253 10 398.5 10C403.747 10 408 5.74671 408 0.5C408 0.33227 407.995 0.165593 407.986 0H426.014C426.005 0.165593 426 0.33227 426 0.5C426 5.74671 430.253 10 435.5 10C440.747 10 445 5.74671 445 0.5C445 0.33227 444.995 0.165593 444.986 0H463.014C463.005 0.165593 463 0.33227 463 0.5C463 5.74671 467.253 10 472.5 10C477.747 10 482 5.74671 482 0.5C482 0.33227 481.995 0.165593 481.986 0H500.014C500.005 0.165593 500 0.33227 500 0.5C500 5.74671 504.253 10 509.5 10C514.747 10 519 5.74671 519 0.5C519 0.33227 518.995 0.165593 518.986 0H529.014C529.265 4.84867 533.151 8.73489 538 8.98633V19.0127C537.834 19.0041 537.668 19 537.5 19C532.253 19 528 23.2533 528 28.5C528 33.7467 532.253 38 537.5 38C537.668 38 537.834 37.9949 538 37.9863V56.0127C537.834 56.0041 537.668 56 537.5 56C532.253 56 528 60.2533 528 65.5C528 70.7467 532.253 75 537.5 75C537.668 75 537.834 74.9949 538 74.9863V93.0127C537.834 93.0041 537.668 93 537.5 93C532.253 93 528 97.2533 528 102.5C528 107.747 532.253 112 537.5 112C537.668 112 537.834 111.995 538 111.986V130.013C537.834 130.004 537.668 130 537.5 130C532.253 130 528 134.253 528 139.5C528 144.747 532.253 149 537.5 149C537.668 149 537.834 148.995 538 148.986V167.013C537.834 167.004 537.668 167 537.5 167C532.253 167 528 171.253 528 176.5C528 181.747 532.253 186 537.5 186C537.668 186 537.834 185.995 538 185.986V204.013C537.834 204.004 537.668 204 537.5 204C532.253 204 528 208.253 528 213.5C528 218.747 532.253 223 537.5 223C537.668 223 537.834 222.995 538 222.986V241.013C537.834 241.004 537.668 241 537.5 241C532.253 241 528 245.253 528 250.5C528 255.747 532.253 260 537.5 260C537.668 260 537.834 259.995 538 259.986V278.013C537.834 278.004 537.668 278 537.5 278C532.253 278 528 282.253 528 287.5C528 292.747 532.253 297 537.5 297C537.668 297 537.834 296.995 538 296.986V315.013C537.834 315.004 537.668 315 537.5 315C532.253 315 528 319.253 528 324.5C528 329.747 532.253 334 537.5 334C537.668 334 537.834 333.995 538 333.986V352.013C537.834 352.004 537.668 352 537.5 352C532.253 352 528 356.253 528 361.5C528 366.747 532.253 371 537.5 371C537.668 371 537.834 370.995 538 370.986V389.013C537.834 389.004 537.668 389 537.5 389C532.253 389 528 393.253 528 398.5C528 403.747 532.253 408 537.5 408C537.668 408 537.834 407.995 538 407.986V426.013C537.834 426.004 537.668 426 537.5 426C532.253 426 528 430.253 528 435.5C528 440.747 532.253 445 537.5 445C537.668 445 537.834 444.995 538 444.986V463.013C537.834 463.004 537.668 463 537.5 463C532.253 463 528 467.253 528 472.5C528 477.747 532.253 482 537.5 482C537.668 482 537.834 481.995 538 481.986V500.013C537.834 500.004 537.668 500 537.5 500C532.253 500 528 504.253 528 509.5C528 514.747 532.253 519 537.5 519C537.668 519 537.834 518.995 538 518.986V529.013C533.151 529.264 529.265 533.151 529.014 538H518.986C518.995 537.834 519 537.668 519 537.5C519 532.253 514.747 528 509.5 528C504.253 528 500 532.253 500 537.5C500 537.668 500.005 537.834 500.014 538H481.986C481.995 537.834 482 537.668 482 537.5C482 532.253 477.747 528 472.5 528C467.253 528 463 532.253 463 537.5C463 537.668 463.005 537.834 463.014 538H444.986C444.995 537.834 445 537.668 445 537.5C445 532.253 440.747 528 435.5 528C430.253 528 426 532.253 426 537.5C426 537.668 426.005 537.834 426.014 538H407.986C407.995 537.834 408 537.668 408 537.5C408 532.253 403.747 528 398.5 528C393.253 528 389 532.253 389 537.5C389 537.668 389.005 537.834 389.014 538H370.986C370.995 537.834 371 537.668 371 537.5C371 532.253 366.747 528 361.5 528C356.253 528 352 532.253 352 537.5C352 537.668 352.005 537.834 352.014 538H333.986C333.995 537.834 334 537.668 334 537.5C334 532.253 329.747 528 324.5 528C319.253 528 315 532.253 315 537.5C315 537.668 315.005 537.834 315.014 538H296.986C296.995 537.834 297 537.668 297 537.5C297 532.253 292.747 528 287.5 528C282.253 528 278 532.253 278 537.5C278 537.668 278.005 537.834 278.014 538H259.986C259.995 537.834 260 537.668 260 537.5C260 532.253 255.747 528 250.5 528C245.253 528 241 532.253 241 537.5C241 537.668 241.005 537.834 241.014 538H222.986C222.995 537.834 223 537.668 223 537.5C223 532.253 218.747 528 213.5 528C208.253 528 204 532.253 204 537.5C204 537.668 204.005 537.834 204.014 538H185.986C185.995 537.834 186 537.668 186 537.5C186 532.253 181.747 528 176.5 528C171.253 528 167 532.253 167 537.5C167 537.668 167.005 537.834 167.014 538H148.986C148.995 537.834 149 537.668 149 537.5C149 532.253 144.747 528 139.5 528C134.253 528 130 532.253 130 537.5C130 537.668 130.005 537.834 130.014 538H111.986C111.995 537.834 112 537.668 112 537.5C112 532.253 107.747 528 102.5 528C97.2533 528 93 532.253 93 537.5C93 537.668 93.0051 537.834 93.0137 538H74.9863C74.9949 537.834 75 537.668 75 537.5C75 532.253 70.7467 528 65.5 528C60.2533 528 56 532.253 56 537.5C56 537.668 56.0051 537.834 56.0137 538H37.9863C37.9949 537.834 38 537.668 38 537.5C38 532.253 33.7467 528 28.5 528C23.2533 528 19 532.253 19 537.5C19 537.668 19.0051 537.834 19.0137 538H8.98633C8.73489 533.151 4.84869 529.264 0 529.013V518.986C0.165593 518.995 0.33227 519 0.5 519C5.7467 519 10 514.747 10 509.5C10 504.253 5.74671 500 0.5 500C0.332287 500 0.165577 500.004 0 500.013V481.986C0.165593 481.995 0.33227 482 0.5 482C5.7467 482 10 477.747 10 472.5C10 467.253 5.74671 463 0.5 463C0.332287 463 0.165577 463.004 0 463.013V444.986C0.165593 444.995 0.33227 445 0.5 445C5.7467 445 10 440.747 10 435.5C10 430.253 5.74671 426 0.5 426C0.332287 426 0.165577 426.004 0 426.013V407.986C0.165593 407.995 0.33227 408 0.5 408C5.7467 408 10 403.747 10 398.5C10 393.253 5.74671 389 0.5 389C0.332287 389 0.165577 389.004 0 389.013V370.986C0.165593 370.995 0.33227 371 0.5 371C5.7467 371 10 366.747 10 361.5C10 356.253 5.74671 352 0.5 352C0.332287 352 0.165577 352.004 0 352.013V333.986C0.165593 333.995 0.33227 334 0.5 334C5.7467 334 10 329.747 10 324.5C10 319.253 5.74671 315 0.5 315C0.332287 315 0.165577 315.004 0 315.013V296.986C0.165593 296.995 0.33227 297 0.5 297C5.7467 297 10 292.747 10 287.5C10 282.253 5.74671 278 0.5 278C0.332287 278 0.165577 278.004 0 278.013V259.986C0.165593 259.995 0.33227 260 0.5 260C5.7467 260 10 255.747 10 250.5C10 245.253 5.74671 241 0.5 241C0.332287 241 0.165577 241.004 0 241.013V222.986C0.165593 222.995 0.33227 223 0.5 223C5.7467 223 10 218.747 10 213.5C10 208.253 5.74671 204 0.5 204C0.332287 204 0.165577 204.004 0 204.013V185.986C0.165593 185.995 0.33227 186 0.5 186C5.7467 186 10 181.747 10 176.5C10 171.253 5.74671 167 0.5 167C0.332287 167 0.165577 167.004 0 167.013V148.986C0.165593 148.995 0.33227 149 0.5 149C5.7467 149 10 144.747 10 139.5C10 134.253 5.74671 130 0.5 130C0.332287 130 0.165577 130.004 0 130.013V111.986C0.165593 111.995 0.33227 112 0.5 112C5.7467 112 10 107.747 10 102.5C10 97.2533 5.74671 93 0.5 93C0.332287 93 0.165577 93.0041 0 93.0127V74.9863C0.165593 74.9949 0.33227 75 0.5 75C5.7467 75 10 70.7467 10 65.5C10 60.2533 5.74671 56 0.5 56C0.332287 56 0.165577 56.0041 0 56.0127V37.9863C0.165593 37.9949 0.33227 38 0.5 38C5.7467 38 10 33.7467 10 28.5C10 23.2533 5.74671 19 0.5 19C0.332287 19 0.165577 19.0041 0 19.0127V8.98633C4.84867 8.73489 8.73489 4.84867 8.98633 0H19.0137Z" fill="#E9E7D3"/>
</svg>
