<svg width="1131" height="202" viewBox="0 0 1131 202" fill="none" xmlns="http://www.w3.org/2000/svg">
<path d="M1098.65 63.3389C1116.61 63.3389 1117.36 36.9181 1099.39 36.1842C1099.21 36.1842 1099.02 36.1842 1098.65 36.1842C1088.73 36.0007 1078.25 41.5051 1073.2 55.0824C1069.27 64.9902 1067.4 79.118 1067.4 93.4293H1120.54V84.9893H1122.6V104.071H1120.54V95.631H1067.4C1067.4 109.759 1069.45 123.887 1073.2 133.611C1078.25 147.188 1088.73 152.693 1098.65 152.509C1111.75 152.326 1123.91 142.418 1123.91 125.171H1119.61V123.153H1130.27V125.171H1126.34C1126.34 143.519 1113.62 155.445 1097.34 155.078C1084.61 154.711 1070.76 146.821 1062.72 131.409C1052.05 110.493 1052.05 78.2006 1062.72 57.2842C1070.76 41.872 1084.61 33.9825 1097.34 33.6155C1113.43 33.2486 1126.15 45.1746 1126.34 63.3389H1130.27V65.3572H1094.72V63.3389H1098.65Z" fill="#F3DE96"/>
<path d="M954.508 36.1843V34.166H973.97V36.1843H969.479L1012.71 134.712L1051.44 36.1843H1047.7V34.166H1058.37V36.1843H1053.88L1021.13 119.483C1016.45 131.042 1016.82 143.886 1021.88 155.261H1010.27L958.251 36.1843H954.508Z" fill="#F3DE96"/>
<path d="M942.351 153.06H947.029V155.078H927.567V153.06H932.058V36.0008H927.754V33.9825H946.842V36.0008H942.351V153.06Z" fill="#F3DE96"/>
<path d="M909.067 153.06H913.746V155.078H894.284V153.06H898.775V118.749C898.775 105.355 887.547 93.0623 872.764 93.0623C859.29 93.0623 845.255 103.337 845.255 118.933V153.06H849.747V155.078H845.255H834.776H830.285V153.06H834.776V36.0008H830.285V33.9825H849.747V36.0008H845.255V105.722C851.057 96.7319 861.349 90.8606 872.764 90.8606C883.43 90.8606 892.787 95.8145 898.775 103.337V36.0008H894.284V33.9825H913.559V36.0008H909.067V153.06Z" fill="#F3DE96"/>
<path d="M787.395 65.3572V63.3389H791.325C809.29 63.3389 809.851 36.9181 791.886 36.1842C791.699 36.1842 791.512 36.1842 791.325 36.1842C781.407 36.0007 770.928 41.5051 765.688 55.0824C758.015 75.4484 758.015 113.428 765.688 133.611C770.928 147.188 781.407 152.693 791.325 152.509C804.237 152.326 816.401 142.418 816.588 125.171H812.284V123.153H822.95V125.171H819.02C818.833 143.519 806.295 155.445 790.015 155.078C777.29 154.711 763.442 146.821 755.396 131.409C744.542 110.493 744.729 78.2006 755.396 57.2842C763.442 41.872 777.29 33.9825 790.015 33.6155C806.108 33.2486 818.833 45.1746 819.02 63.3389H822.95V65.3572H787.395Z" fill="#F3DE96"/>
<path d="M723.093 111.043C730.953 118.749 731.514 131.96 731.514 153.06H735.818V155.078H716.357V153.06H721.409C721.783 103.888 710.368 105.355 680.802 105.539V153.06H685.293V155.078H665.831V153.06H670.509V36.0008H666.018V33.9825H685.293C692.778 33.9825 701.947 34.3495 707.187 35.2669C726.275 39.1199 735.818 51.2294 735.818 67.559C735.818 89.5763 721.596 99.4841 702.883 103.521C712.614 104.438 718.789 106.823 723.093 111.043ZM680.802 81.1363C680.802 95.8145 699.515 105.355 715.047 94.8971C721.783 90.3102 726.088 82.0537 726.088 69.5772C724.965 38.2025 706.252 35.6338 685.293 36.0008H680.802V81.1363Z" fill="#F3DE96"/>
<path fill-rule="evenodd" clip-rule="evenodd" d="M716.925 201.322V197.699H703.985C671.896 198.216 652.21 152.497 652.21 152.497L585.928 0H571.093L581.143 22.7572L530.175 152.497H524.193V155.078H537.832V152.497H533.286L540.465 133.259C540.498 133.178 540.536 133.083 540.579 132.976C542.408 128.436 553.418 101.106 585.211 100.648C606.507 100.413 621.342 114.255 628.282 129.974L638.092 152.497C638.092 152.497 654.299 201.322 703.985 201.322H716.925ZM618.95 108.859C609.857 101.586 597.414 97.8327 585.211 97.8327C572.529 97.8327 559.129 101.821 549.797 110.502L582.578 26.511L618.95 108.859Z" fill="#F3DE96"/>
<path d="M476.07 153.06H480.748V155.078H461.286V153.06H465.777C465.777 108.475 451.368 69.5773 439.017 53.2477C428.351 39.3034 417.872 36.0008 405.708 36.0008V153.06H410.199V155.078H390.737V153.06H395.229V36.0008H390.737V33.9826H407.018C421.24 33.4322 432.281 40.7713 440.889 51.9634C448.374 61.8712 453.801 74.7146 457.918 88.1085C459.228 92.3285 465.777 91.4111 465.777 87.0076V36.0008H461.286V33.9826H480.561V36.0008H476.07V153.06Z" fill="#F3DE96"/>
<path d="M352.253 99.3005H380.884V101.319H378.264V124.437C378.264 134.712 373.773 142.601 367.223 147.922C361.048 153.059 353.375 155.445 345.703 155.261C331.107 155.078 315.949 145.17 308.277 125.538C300.23 104.988 301.166 76.3658 310.897 57.2842C318.943 41.872 332.604 33.9825 345.329 33.6155C361.609 33.2486 374.334 45.1746 374.334 63.3389H378.451V65.3572H342.896V63.3389H347.013C364.791 63.3389 365.165 36.1842 346.826 36.1842C336.721 36.0007 326.428 41.5051 321.189 55.0824C314.826 71.7789 313.704 101.502 318.195 122.786C322.686 144.803 334.662 152.693 345.703 152.693C353.375 152.876 360.674 149.206 364.603 144.069C368.159 139.299 370.217 132.877 370.03 124.62V115.08C370.03 107.374 363.668 101.319 355.995 101.319H352.253V99.3005Z" fill="#F3DE96"/>
<path d="M288.447 153.06H293.125V155.078H273.663V153.06H278.154V36.0008H273.85V33.9825H292.938V36.0008H288.447V153.06Z" fill="#F3DE96"/>
<path d="M232.295 63.5224C243.149 63.5224 247.827 53.6146 245.394 45.7251C241.839 33.4321 222.752 33.2486 213.208 43.1564C208.342 48.1103 205.348 55.2659 205.348 62.972C205.348 77.8336 215.64 83.8884 227.991 90.6771C236.038 95.0805 245.02 99.6675 252.693 107.007C267.289 121.134 261.862 155.078 225.933 155.078C216.015 155.078 201.418 151.225 195.243 143.152V147.922H193.185V118.933H195.243V123.153C195.243 140.766 212.272 153.243 226.12 153.243C252.88 153.243 254.938 125.721 244.085 114.896C237.535 108.107 228.553 103.887 219.945 99.1171C207.22 91.9614 195.617 84.0719 195.617 66.458C195.617 55.9998 201.044 46.092 210.214 40.0373C222.003 31.9642 242.4 30.4964 253.254 43.5233C257.371 48.6607 259.804 55.4494 259.804 63.5224H263.921V65.5406H228.365V63.5224H232.295Z" fill="#F3DE96"/>
<path d="M152.897 63.3389C170.862 63.3389 171.61 36.9181 153.646 36.1842C153.459 36.1842 153.271 36.1842 152.897 36.1842C142.979 36.0007 132.5 41.5051 127.447 55.0824C123.517 64.9902 121.646 79.118 121.646 93.4293H174.792V84.9893H176.85V104.071H174.792V95.631H121.646C121.646 109.759 123.705 123.887 127.447 133.611C132.5 147.188 142.979 152.693 152.897 152.509C165.996 152.326 178.16 142.418 178.16 125.171H173.856V123.153H184.522V125.171H180.593C180.593 143.519 167.868 155.445 151.587 155.078C138.862 154.711 125.015 146.821 116.968 131.409C106.301 110.493 106.301 78.2006 116.968 57.2842C125.015 41.872 138.862 33.9825 151.587 33.6155C167.681 33.2486 180.406 45.1746 180.593 63.3389H184.522V65.3572H148.967V63.3389H152.897Z" fill="#F3DE96"/>
<path d="M0 0.234619L49.7709 0.469227C57.6673 0.469227 60.778 0.234619 65.8029 2.11151C99.7812 13.842 108.156 90.3252 90.2098 124.813C80.1599 144.52 62.453 154.609 46.1817 155.078C36.3711 155.312 27.5176 152.028 20.8176 145.928V152.497H26.5604V155.078H1.67495V152.497H7.41778V2.81533H0V0.234619ZM77.0492 127.628C90.4491 92.6713 88.5348 3.04995 49.0531 3.04995C18.4248 3.04995 20.8176 15.2497 20.8176 30.4994V128.332C20.8176 140.297 30.8675 151.793 44.2674 151.793C57.1887 152.028 70.3493 144.989 77.0492 127.628Z" fill="#F3DE96"/>
</svg>
