<svg width="40" height="40" viewBox="0 0 40 40" fill="none" xmlns="http://www.w3.org/2000/svg">
<mask id="mask0_64_56" style="mask-type:alpha" maskUnits="userSpaceOnUse" x="0" y="0" width="40" height="40">
<rect width="40" height="40" fill="#D9D9D9"/>
</mask>
<g mask="url(#mask0_64_56)">
<path d="M19.295 27.8204H20.705V21.1538H19.295V27.8204ZM20.8113 17.0883C21.0396 16.8564 21.1538 16.5858 21.1538 16.2767C21.1538 15.9675 21.038 15.6988 20.8063 15.4704C20.5743 15.2424 20.3038 15.1283 19.9946 15.1283C19.6855 15.1283 19.4168 15.2442 19.1888 15.4758C18.9605 15.7075 18.8463 15.9781 18.8463 16.2875C18.8463 16.5967 18.9621 16.8653 19.1938 17.0933C19.4257 17.3217 19.6963 17.4358 20.0055 17.4358C20.3146 17.4358 20.5832 17.32 20.8113 17.0883ZM8.33337 33.3333V15.8333L20 7.05125L31.6667 15.8333V33.3333H8.33337ZM9.74379 31.9229H30.2563V16.4913L20 8.86959L9.74379 16.4913V31.9229Z" fill="#DAD5C8"/>
</g>
</svg>
