<svg width="442" height="66" viewBox="0 0 442 66" fill="none" xmlns="http://www.w3.org/2000/svg">
<path d="M402.485 64.0321C402.037 64.0321 401.653 63.8721 401.333 63.5521C401.077 63.2321 400.949 62.8801 400.949 62.4961C400.949 61.9841 401.141 61.5681 401.525 61.2481C401.909 60.9281 402.325 60.7361 402.773 60.6721C404.053 60.3521 404.949 59.9681 405.461 59.5201C406.037 59.0721 406.325 58.2081 406.325 56.9281V28.1281C406.325 26.7201 406.069 25.6961 405.557 25.0561C405.109 24.4161 404.085 23.9041 402.485 23.5201C401.973 23.3921 401.557 23.2001 401.237 22.9441C400.917 22.6241 400.757 22.2401 400.757 21.7921C400.757 21.3441 400.917 20.9921 401.237 20.7361C401.621 20.4161 402.037 20.2561 402.485 20.2561C403.253 20.2561 404.181 20.2881 405.269 20.3521C406.357 20.4161 407.413 20.4801 408.437 20.5441C409.461 20.6081 410.293 20.6401 410.933 20.6401C413.365 20.6401 415.957 20.6401 418.709 20.6401C421.525 20.5761 424.181 20.5441 426.677 20.5441C429.173 20.4801 431.285 20.4481 433.013 20.4481C434.805 20.3841 435.925 20.3521 436.373 20.3521C436.757 20.3521 437.173 20.4801 437.621 20.7361C438.069 20.9921 438.293 21.4401 438.293 22.0801C438.293 23.5521 438.517 25.1521 438.965 26.8801C439.413 28.5441 439.637 30.0161 439.637 31.2961C439.637 31.6801 439.541 32.0321 439.349 32.3521C439.221 32.6721 438.997 32.8321 438.677 32.8321C438.421 32.8321 438.101 32.7041 437.717 32.4481C437.397 32.1921 437.109 31.8081 436.853 31.2961C435.829 28.9921 434.869 27.2641 433.973 26.1121C433.141 24.9601 431.573 24.3841 429.269 24.3841H424.085C423.189 24.3841 422.421 24.6401 421.781 25.1521C421.141 25.6641 420.821 26.4961 420.821 27.6481V38.1121C420.821 38.8161 420.981 39.2961 421.301 39.5521C421.685 39.8081 422.197 39.9361 422.837 39.9361H427.349C428.437 39.9361 429.301 39.6161 429.941 38.9761C430.581 38.3361 431.189 37.1841 431.765 35.5201C432.021 34.9441 432.277 34.5921 432.533 34.4641C432.789 34.2721 433.077 34.1761 433.397 34.1761C433.653 34.1761 433.877 34.3361 434.069 34.6561C434.261 34.9121 434.293 35.3601 434.165 36.0001C434.037 37.3441 433.941 38.4641 433.877 39.3601C433.877 40.1921 433.877 41.1521 433.877 42.2401C433.877 43.2641 433.877 44.1281 433.877 44.8321C433.941 45.4721 434.037 46.5281 434.165 48.0001C434.293 48.8321 434.261 49.4401 434.069 49.8241C433.877 50.1441 433.653 50.3041 433.397 50.3041C433.077 50.3041 432.725 50.1441 432.341 49.8241C432.021 49.5041 431.765 49.0561 431.573 48.4801C431.189 46.8801 430.709 45.7601 430.133 45.1201C429.621 44.4161 428.885 44.0321 427.925 43.9681C427.029 43.9681 426.069 43.9681 425.045 43.9681C424.021 43.9681 423.061 43.9681 422.165 43.9681C421.653 43.9681 421.301 44.1281 421.109 44.4481C420.917 44.7681 420.821 45.1201 420.821 45.5041V56.9281C420.821 57.8881 421.013 58.5921 421.397 59.0401C421.845 59.4241 422.613 59.6161 423.701 59.6161H430.133C432.181 59.6161 434.037 58.8801 435.701 57.4081C437.365 55.9361 438.517 54.2081 439.157 52.2241C439.285 51.7121 439.509 51.3601 439.829 51.1681C440.149 50.9121 440.437 50.7841 440.693 50.7841C441.077 50.7841 441.365 50.9761 441.557 51.3601C441.749 51.6801 441.845 52.0321 441.845 52.4161C441.781 54.0161 441.525 55.5201 441.077 56.9281C440.629 58.2721 440.117 59.9681 439.541 62.0161C439.413 62.6561 439.125 63.1361 438.677 63.4561C438.229 63.7761 437.685 63.9361 437.045 63.9361C436.341 63.9361 435.125 63.9361 433.397 63.9361C431.669 63.9361 429.685 63.9041 427.445 63.8401C425.205 63.8401 422.869 63.8081 420.437 63.7441C418.005 63.7441 415.637 63.7441 413.333 63.7441C412.373 63.7441 411.189 63.7761 409.781 63.8401C408.437 63.9041 407.093 63.9361 405.749 63.9361C404.469 64.0001 403.381 64.0321 402.485 64.0321Z" fill="#373724"/>
<path d="M344.385 64.2242C343.873 64.2242 343.425 64.0642 343.041 63.7442C342.657 63.4242 342.465 63.1042 342.465 62.7842C342.465 62.3362 342.625 61.9842 342.945 61.7282C343.329 61.4082 343.745 61.2162 344.193 61.1522C345.793 60.8962 346.913 60.4802 347.553 59.9042C348.193 59.2642 348.513 58.3682 348.513 57.2162V27.8402C348.513 26.3682 348.257 25.3442 347.745 24.7682C347.297 24.1282 346.209 23.6162 344.481 23.2322C343.969 23.1042 343.521 22.9122 343.137 22.6562C342.753 22.3362 342.561 21.9842 342.561 21.6002C342.561 21.2162 342.721 20.8962 343.041 20.6402C343.425 20.3842 343.809 20.2562 344.193 20.2562C345.217 20.2562 346.433 20.2882 347.841 20.3522C349.313 20.4162 350.721 20.5122 352.065 20.6402C353.473 20.7042 354.497 20.7362 355.137 20.7362C355.777 20.7362 356.801 20.6722 358.209 20.5442C359.617 20.4162 361.089 20.3202 362.625 20.2562C364.225 20.1282 365.537 20.0642 366.561 20.0642C372.193 20.0642 377.089 20.7362 381.249 22.0802C385.409 23.4242 388.641 25.6642 390.945 28.8002C393.249 31.8722 394.401 36.1282 394.401 41.5682C394.401 46.4322 393.121 50.5602 390.561 53.9522C388.065 57.2802 384.705 59.8402 380.481 61.6322C376.257 63.3602 371.521 64.2242 366.273 64.2242C364.801 64.2242 363.329 64.1602 361.857 64.0322C360.385 63.9682 359.009 63.8722 357.729 63.7442C356.449 63.6802 355.329 63.6482 354.369 63.6482C353.473 63.6482 352.417 63.6802 351.201 63.7442C349.985 63.8722 348.769 63.9682 347.553 64.0322C346.337 64.1602 345.281 64.2242 344.385 64.2242ZM368.001 60.6722C370.497 60.6722 372.545 59.9682 374.145 58.5602C375.745 57.0882 376.961 55.1042 377.793 52.6082C378.625 50.0482 379.041 47.2002 379.041 44.0642C379.041 40.2882 378.657 36.8642 377.889 33.7922C377.121 30.7202 375.873 28.2882 374.145 26.4962C372.417 24.6402 370.113 23.7122 367.233 23.7122C365.825 23.7122 364.769 24.1922 364.065 25.1522C363.361 26.1122 363.009 27.2002 363.009 28.4162V55.1042C363.009 56.7042 363.329 58.0482 363.969 59.1362C364.609 60.1602 365.953 60.6722 368.001 60.6722Z" fill="#373724"/>
<path d="M309.93 64.8001C305.386 64.8001 301.194 63.8721 297.354 62.0161C293.514 60.0961 290.41 57.5041 288.042 54.2401C285.674 50.9121 284.49 47.1041 284.49 42.8161C284.49 39.8081 285.066 36.9601 286.218 34.2721C287.434 31.5201 289.13 29.0561 291.306 26.8801C293.546 24.7041 296.266 22.9761 299.466 21.6961C302.73 20.4161 306.41 19.7761 310.506 19.7761C313.898 19.7761 317.13 20.2881 320.202 21.3121C323.338 22.3361 326.09 23.8401 328.458 25.8241C330.826 27.8081 332.714 30.1441 334.122 32.8321C335.53 35.4561 336.234 38.4001 336.234 41.6641C336.234 45.6321 335.21 49.3761 333.162 52.8961C331.178 56.4161 328.234 59.2961 324.33 61.5361C320.49 63.7121 315.69 64.8001 309.93 64.8001ZM310.794 60.5761C312.522 60.5761 314.026 60.1281 315.306 59.2321C316.586 58.3361 317.642 57.1201 318.474 55.5841C319.306 54.0481 319.914 52.2241 320.298 50.1121C320.682 48.0001 320.874 45.7281 320.874 43.2961C320.874 39.6481 320.426 36.3521 319.53 33.4081C318.698 30.4641 317.45 28.1601 315.786 26.4961C314.186 24.7681 312.17 23.9041 309.738 23.9041C307.562 23.9041 305.738 24.6401 304.266 26.1121C302.794 27.5841 301.674 29.6001 300.906 32.1601C300.202 34.7201 299.85 37.6641 299.85 40.9921C299.85 44.7681 300.266 48.1281 301.098 51.0721C301.93 54.0161 303.178 56.3521 304.842 58.0801C306.506 59.7441 308.49 60.5761 310.794 60.5761Z" fill="#373724"/>
<path d="M251.948 65.088C246.956 65.088 242.284 64.352 237.932 62.88C233.58 61.344 229.74 59.2 226.412 56.448C223.084 53.632 220.492 50.272 218.636 46.368C216.78 42.464 215.852 38.144 215.852 33.408C215.852 28.992 216.716 24.8 218.444 20.832C220.236 16.8 222.828 13.248 226.22 10.176C229.612 7.04 233.676 4.576 238.412 2.784C243.212 0.927999 248.62 0 254.636 0C256.684 0 258.732 0.16 260.78 0.48C262.892 0.736 264.908 1.12 266.828 1.632C268.812 2.144 270.604 2.688 272.204 3.264C272.78 3.52 273.26 3.872 273.644 4.32C274.092 4.704 274.348 5.28 274.412 6.048C274.668 8.16 274.86 10.208 274.988 12.192C275.116 14.176 275.18 15.968 275.18 17.568C275.18 18.272 274.924 18.752 274.412 19.008C273.9 19.264 273.324 19.296 272.684 19.104C272.108 18.848 271.692 18.336 271.436 17.568C270.988 16.096 270.444 14.624 269.804 13.152C269.228 11.68 268.332 10.4 267.116 9.312C265.836 8.032 264.044 6.976 261.74 6.144C259.5 5.312 256.78 4.896 253.58 4.896C250.316 4.896 247.34 5.6 244.652 7.008C242.028 8.416 239.756 10.336 237.836 12.768C235.98 15.2 234.54 17.952 233.516 21.024C232.492 24.096 231.98 27.296 231.98 30.624C231.98 34.848 232.428 38.784 233.324 42.432C234.22 46.016 235.596 49.12 237.452 51.744C239.308 54.368 241.58 56.416 244.268 57.888C246.956 59.36 250.124 60.096 253.772 60.096C258.508 60.096 262.348 59.104 265.292 57.12C268.236 55.072 270.7 51.968 272.684 47.808C273.196 46.656 273.9 46.112 274.796 46.176C275.756 46.24 276.236 46.784 276.236 47.808C276.236 48.64 276.14 49.664 275.948 50.88C275.82 52.032 275.596 53.28 275.276 54.624C274.956 55.968 274.572 57.344 274.124 58.752C273.868 59.52 273.516 60.128 273.068 60.576C272.684 60.96 272.172 61.312 271.532 61.632C269.1 62.656 266.22 63.488 262.892 64.128C259.564 64.768 255.916 65.088 251.948 65.088Z" fill="#373724"/>
<path d="M201.003 65.0882C199.595 65.0882 198.411 64.9282 197.451 64.6082C196.555 64.3522 195.723 63.9042 194.955 63.2642C194.187 62.5602 193.291 61.6002 192.267 60.3842L169.419 34.2722C168.971 33.7602 168.587 33.3762 168.267 33.1202C168.011 32.8002 167.787 32.6402 167.595 32.6402C167.403 32.6402 167.275 32.8322 167.211 33.2162C167.147 33.5362 167.115 33.8882 167.115 34.2722C167.115 36.2562 167.147 38.6242 167.211 41.3762C167.275 44.1282 167.339 46.8162 167.403 49.4402C167.531 52.0002 167.627 54.1442 167.691 55.8722C167.819 57.3442 168.331 58.4002 169.227 59.0402C170.123 59.6802 171.659 60.2562 173.835 60.7682C174.219 60.8322 174.603 61.0242 174.987 61.3442C175.435 61.6002 175.659 62.0162 175.659 62.5922C175.659 62.9762 175.467 63.2962 175.083 63.5522C174.763 63.7442 174.411 63.8402 174.027 63.8402C172.043 63.8402 170.603 63.8082 169.707 63.7442C168.811 63.6802 167.595 63.6482 166.059 63.6482C164.267 63.6482 162.603 63.6802 161.067 63.7442C159.595 63.8082 158.347 63.8402 157.323 63.8402C157.003 63.8402 156.683 63.7442 156.363 63.5522C156.043 63.2962 155.883 63.0082 155.883 62.6882C155.883 62.1762 156.011 61.8242 156.267 61.6322C156.587 61.3762 156.971 61.2162 157.419 61.1522C158.443 60.8962 159.435 60.4802 160.395 59.9042C161.419 59.3282 161.963 58.3362 162.027 56.9282C162.091 56.0322 162.187 54.8482 162.315 53.3762C162.443 51.8402 162.539 50.1442 162.603 48.2882C162.731 46.3682 162.827 44.3522 162.891 42.2402C162.955 40.1282 163.019 38.0162 163.083 35.9042C163.147 33.7282 163.179 31.6162 163.179 29.5682C163.179 28.2882 162.923 27.2002 162.411 26.3042C161.899 25.4082 161.195 24.7042 160.299 24.1922C159.467 23.6162 158.507 23.1682 157.419 22.8482C156.843 22.6562 156.395 22.4642 156.075 22.2722C155.755 22.0162 155.595 21.6962 155.595 21.3122C155.595 20.9282 155.755 20.6402 156.075 20.4482C156.459 20.2562 156.971 20.1602 157.611 20.1602C158.059 20.1602 158.923 20.1922 160.203 20.2562C161.547 20.2562 163.051 20.2882 164.715 20.3522C166.443 20.3522 168.171 20.3842 169.899 20.4482C171.627 20.4482 173.099 20.4482 174.315 20.4482C175.019 20.4482 175.531 20.6082 175.851 20.9282C176.235 21.1842 176.555 21.5042 176.811 21.8882L198.411 45.9842C198.539 46.1122 198.731 46.3362 198.987 46.6562C199.243 46.9122 199.467 47.0402 199.659 47.0402C199.787 47.0402 199.883 46.9442 199.947 46.7522C200.075 46.4962 200.139 46.2082 200.139 45.8882L199.659 28.8962C199.595 27.1682 199.243 25.9202 198.603 25.1522C197.963 24.3202 196.491 23.6162 194.187 23.0402C193.867 22.9122 193.483 22.7522 193.035 22.5602C192.651 22.3042 192.459 21.9202 192.459 21.4082C192.459 21.0242 192.651 20.7362 193.035 20.5442C193.419 20.3522 193.771 20.2562 194.091 20.2562C195.755 20.2562 197.003 20.2882 197.835 20.3522C198.667 20.3522 199.403 20.3842 200.043 20.4482C200.683 20.5122 201.515 20.5442 202.539 20.5442C203.435 20.5442 204.203 20.5122 204.843 20.4482C205.547 20.3842 206.251 20.3522 206.955 20.3522C207.723 20.2882 208.651 20.2562 209.739 20.2562C210.187 20.2562 210.571 20.3842 210.891 20.6402C211.275 20.8962 211.467 21.1842 211.467 21.5042C211.467 21.9522 211.275 22.3042 210.891 22.5602C210.507 22.7522 210.123 22.9122 209.739 23.0402C208.075 23.2962 206.891 23.8082 206.187 24.5762C205.483 25.2802 205.067 26.4322 204.939 28.0322L203.691 59.6162C203.691 61.4082 203.435 62.7842 202.923 63.7442C202.411 64.6402 201.771 65.0882 201.003 65.0882Z" fill="#373724"/>
<path d="M126.35 64.1281C125.774 64.1281 125.326 64.0001 125.006 63.7441C124.686 63.4241 124.526 63.0721 124.526 62.6881C124.526 62.1761 124.686 61.7921 125.006 61.5361C125.326 61.2801 125.806 61.1201 126.446 61.0561C128.302 60.7361 129.518 60.2241 130.094 59.5201C130.67 58.7521 130.734 57.6321 130.286 56.1601L129.038 52.1281C128.974 51.7441 128.814 51.4881 128.558 51.3601C128.366 51.1681 128.014 51.0721 127.502 51.0721H114.734C114.286 51.0721 113.966 51.1681 113.774 51.3601C113.646 51.5521 113.518 51.8081 113.39 52.1281C112.942 53.0881 112.59 53.9201 112.334 54.6241C112.078 55.3281 111.854 56.0641 111.662 56.8321C111.342 57.9841 111.406 58.9121 111.854 59.6161C112.302 60.2561 113.678 60.7681 115.982 61.1521C116.622 61.2161 117.07 61.3761 117.326 61.6321C117.646 61.8241 117.806 62.1761 117.806 62.6881C117.806 63.0721 117.646 63.3921 117.326 63.6481C117.006 63.8401 116.558 63.9361 115.982 63.9361C114.638 63.9361 113.486 63.9041 112.526 63.8401C111.566 63.7761 110.67 63.7441 109.838 63.7441C109.006 63.6801 108.078 63.6481 107.054 63.6481C106.222 63.6481 105.422 63.6801 104.654 63.7441C103.95 63.8081 103.182 63.8721 102.35 63.9361C101.582 64.0001 100.622 64.0321 99.4701 64.0321C99.0221 64.0321 98.5741 63.9361 98.1261 63.7441C97.6781 63.6161 97.4541 63.2641 97.4541 62.6881C97.4541 62.1761 97.6461 61.8561 98.0301 61.7281C98.4141 61.5361 98.7661 61.4081 99.0861 61.3441C100.046 61.1521 100.878 60.8961 101.582 60.5761C102.35 60.2561 103.022 59.8401 103.598 59.3281C104.174 58.7521 104.622 58.0801 104.942 57.3121L116.174 30.6241C116.878 28.9601 117.23 27.6161 117.23 26.5921C117.23 25.5041 117.39 24.8641 117.71 24.6721C118.414 24.2881 119.47 23.7761 120.878 23.1361C122.286 22.4961 123.63 21.8561 124.91 21.2161C126.254 20.5121 127.15 20.0321 127.598 19.7761C128.558 19.3281 129.326 19.0081 129.902 18.8161C130.542 18.5601 131.022 18.4321 131.342 18.4321C131.662 18.4321 131.95 18.6881 132.206 19.2001C132.462 19.6481 132.718 20.2241 132.974 20.9281L145.646 57.4081C146.03 58.3681 146.542 59.1681 147.182 59.8081C147.886 60.4481 148.974 60.8961 150.446 61.1521C150.83 61.2161 151.214 61.3441 151.598 61.5361C151.982 61.6641 152.174 62.0161 152.174 62.5921C152.174 62.9761 152.014 63.2961 151.694 63.5521C151.438 63.7441 151.086 63.8401 150.638 63.8401C148.846 63.8401 146.83 63.8081 144.59 63.7441C142.35 63.6161 140.43 63.5521 138.83 63.5521C137.87 63.5521 136.654 63.6161 135.182 63.7441C133.774 63.8081 132.27 63.8721 130.67 63.9361C129.134 64.0641 127.694 64.1281 126.35 64.1281ZM116.75 46.6561H125.87C126.318 46.6561 126.606 46.5601 126.734 46.3681C126.926 46.1121 126.958 45.7601 126.83 45.3121C126.51 44.3521 126.126 43.2641 125.678 42.0481C125.23 40.8321 124.75 39.5841 124.238 38.3041C123.79 37.0241 123.342 35.7441 122.894 34.4641C122.51 33.1841 122.158 31.9681 121.838 30.8161C121.774 30.5601 121.678 30.4321 121.55 30.4321C121.486 30.3681 121.358 30.4961 121.166 30.8161C120.27 33.0561 119.374 35.4561 118.478 38.0161C117.582 40.5121 116.686 42.9441 115.79 45.3121C115.726 45.7601 115.726 46.1121 115.79 46.3681C115.854 46.5601 116.174 46.6561 116.75 46.6561Z" fill="#373724"/>
<path d="M75.5896 64.7042C71.7496 64.7042 68.1656 64.1922 64.8376 63.1682C61.5736 62.1442 58.7256 60.6722 56.2936 58.7522C53.8616 56.8322 51.9416 54.5602 50.5336 51.9362C49.1896 49.2482 48.5176 46.3042 48.5176 43.1042C48.5176 40.2242 49.1256 37.4082 50.3416 34.6562C51.6216 31.8402 53.4776 29.3122 55.9096 27.0722C58.3416 24.8322 61.3816 23.0402 65.0296 21.6962C68.6776 20.3522 72.8696 19.6802 77.6056 19.6802C78.9496 19.6802 80.4536 19.8402 82.1176 20.1602C83.7816 20.4162 85.3816 20.7682 86.9176 21.2162C88.4536 21.6002 89.6696 22.0162 90.5656 22.4642C90.9496 22.5922 91.2376 22.7522 91.4296 22.9442C91.6856 23.0722 91.8456 23.3602 91.9096 23.8082C92.2296 25.6642 92.4216 27.4242 92.4856 29.0882C92.5496 30.6882 92.5816 31.7122 92.5816 32.1602C92.5816 32.8642 92.2936 33.3122 91.7176 33.5042C91.2056 33.6322 90.6616 33.5682 90.0856 33.3122C89.5736 33.0562 89.1896 32.6722 88.9336 32.1602C88.3576 30.4322 87.6216 28.9282 86.7256 27.6482C85.8296 26.3682 84.6136 25.3762 83.0776 24.6722C81.6056 23.9682 79.5576 23.6162 76.9336 23.6162C74.0536 23.6162 71.6216 24.4482 69.6376 26.1122C67.7176 27.7762 66.2456 29.9522 65.2216 32.6402C64.2616 35.2642 63.7816 38.0482 63.7816 40.9922C63.7816 45.1522 64.2296 48.7042 65.1256 51.6482C66.0216 54.5922 67.4296 56.8642 69.3496 58.4642C71.2696 60.0002 73.8296 60.7682 77.0296 60.7682C79.2696 60.7682 81.2216 60.4162 82.8856 59.7122C84.5496 59.0082 85.9896 57.9522 87.2056 56.5442C88.4216 55.0722 89.4136 53.3122 90.1816 51.2642C90.5656 50.2402 91.2056 49.7602 92.1016 49.8242C93.0616 49.8242 93.5416 50.2082 93.5416 50.9762C93.5416 51.7442 93.5096 52.5762 93.4456 53.4722C93.3816 54.3042 93.2216 55.2322 92.9656 56.2562C92.7736 57.2802 92.5176 58.4322 92.1976 59.7122C92.1336 60.0962 91.9096 60.5122 91.5256 60.9602C91.1416 61.3442 90.8216 61.6322 90.5656 61.8242C88.8376 62.5922 86.7256 63.2642 84.2296 63.8402C81.7976 64.4162 78.9176 64.7042 75.5896 64.7042Z" fill="#373724"/>
<path d="M18.744 65.088C15.992 65.088 13.336 64.768 10.776 64.128C8.216 63.488 5.816 62.464 3.576 61.056C3.192 60.736 2.808 60.384 2.424 60C2.04 59.616 1.752 59.2 1.56 58.752C0.920003 57.024 0.472001 54.912 0.216001 52.416C0.0240012 49.92 -0.0400002 47.392 0.0239997 44.832C0.0239997 44.384 0.215996 44.064 0.599996 43.872C0.983996 43.68 1.432 43.584 1.944 43.584C2.584 43.584 3 43.68 3.192 43.872C3.448 44 3.704 44.288 3.96 44.736C5.368 49.536 7.44799 53.408 10.2 56.352C13.016 59.296 16.28 60.768 19.992 60.768C22.04 60.768 23.704 60.32 24.984 59.424C26.328 58.464 27.352 57.28 28.056 55.872C28.76 54.4 29.112 52.928 29.112 51.456C29.112 49.408 28.696 47.68 27.864 46.272C27.096 44.864 25.912 43.584 24.312 42.432C22.712 41.28 20.664 40.032 18.168 38.688C15.48 37.152 12.888 35.552 10.392 33.888C7.896 32.16 5.848 30.08 4.248 27.648C2.648 25.216 1.848 22.176 1.848 18.528C1.848 14.752 2.80799 11.488 4.72799 8.736C6.71199 5.984 9.40001 3.84 12.792 2.304C16.184 0.768 19.992 0 24.216 0C26.648 0 28.952 0.256001 31.128 0.768002C33.368 1.28 35.16 1.792 36.504 2.304C37.272 2.624 37.816 2.976 38.136 3.36C38.52 3.744 38.84 4.416 39.096 5.376C39.416 6.72 39.672 8.352 39.864 10.272C40.12 12.192 40.248 14.304 40.248 16.608C40.248 17.44 39.672 17.856 38.52 17.856C37.944 17.856 37.4 17.728 36.888 17.472C36.44 17.152 36.152 16.768 36.024 16.32C34.936 12.48 33.336 9.568 31.224 7.584C29.112 5.6 26.52 4.608 23.448 4.608C21.528 4.608 19.896 4.928 18.552 5.568C17.208 6.208 16.184 7.168 15.48 8.448C14.84 9.728 14.52 11.328 14.52 13.248C14.52 14.784 15.032 16.224 16.056 17.568C17.144 18.848 18.68 20.16 20.664 21.504C22.648 22.848 24.92 24.288 27.48 25.824C30.936 27.872 33.688 29.888 35.736 31.872C37.784 33.856 39.256 35.968 40.152 38.208C41.112 40.384 41.592 42.912 41.592 45.792C41.592 50.144 40.632 53.76 38.712 56.64C36.856 59.52 34.2 61.664 30.744 63.072C27.352 64.416 23.352 65.088 18.744 65.088Z" fill="#373724"/>
</svg>
