<svg width="423" height="441" viewBox="0 0 423 441" fill="none" xmlns="http://www.w3.org/2000/svg">
<path d="M423 441H295V412.5H296V440H422V340H296V371.5H295V269H366V285H402.5V286H365V270H296V339H422V174H296V229.5H295V114.5H296V173H422V87H261.5V86H422V1H1V86H150.5V87H1V296H134.634V351.5H133.634V297H1V440H133.634V389.5H134.634V441H0V0H423V441ZM248.5 326.5H186.5V125.5H248.5V326.5ZM187.5 325.5H247.5V126.5H187.5V325.5ZM135 253.5H134V88.5H135V253.5ZM226.5 87H190.5V86H226.5V87Z" fill="#FFEFBD"/>
<circle cx="217.5" cy="368.5" r="23" fill="#D62E2E"/>
<path d="M229.235 377.56C229.147 377.56 229.075 377.544 229.019 377.512C228.971 377.48 228.947 377.44 228.947 377.392C228.947 377.288 229.051 377.212 229.259 377.164C229.547 377.092 229.751 377.004 229.871 376.9C229.999 376.788 230.063 376.6 230.063 376.336V370.9C230.063 370.628 230.007 370.436 229.895 370.324C229.791 370.212 229.591 370.124 229.295 370.06C229.183 370.036 229.103 370.004 229.055 369.964C229.007 369.916 228.983 369.868 228.983 369.82C228.983 369.764 229.007 369.724 229.055 369.7C229.111 369.668 229.183 369.652 229.271 369.652C229.503 369.652 229.723 369.656 229.931 369.664C230.147 369.672 230.355 369.68 230.555 369.688C230.755 369.696 230.963 369.7 231.179 369.7C231.547 369.7 231.935 369.696 232.343 369.688C232.759 369.68 233.131 369.676 233.459 369.676C233.723 369.668 233.939 369.656 234.107 369.64C234.283 369.624 234.387 369.616 234.419 369.616C234.475 369.616 234.531 369.628 234.587 369.652C234.651 369.676 234.687 369.724 234.695 369.796C234.727 370.06 234.767 370.32 234.815 370.576C234.863 370.832 234.887 371.056 234.887 371.248C234.887 371.32 234.867 371.376 234.827 371.416C234.795 371.448 234.759 371.464 234.719 371.464C234.679 371.464 234.643 371.452 234.611 371.428C234.579 371.396 234.551 371.352 234.527 371.296C234.463 371.112 234.403 370.952 234.347 370.816C234.291 370.68 234.227 370.576 234.155 370.504C234.051 370.392 233.931 370.304 233.795 370.24C233.659 370.176 233.495 370.144 233.303 370.144H232.187C232.043 370.144 231.911 370.188 231.791 370.276C231.671 370.356 231.611 370.472 231.611 370.624V372.976C231.611 373.064 231.635 373.132 231.683 373.18C231.739 373.228 231.803 373.252 231.875 373.252H232.979C233.195 373.252 233.347 373.192 233.435 373.072C233.531 372.952 233.611 372.788 233.675 372.58C233.731 372.42 233.807 372.34 233.903 372.34C233.943 372.34 233.979 372.364 234.011 372.412C234.043 372.452 234.059 372.508 234.059 372.58C234.051 372.66 234.043 372.756 234.035 372.868C234.027 372.98 234.019 373.092 234.011 373.204C234.011 373.316 234.011 373.416 234.011 373.504C234.011 373.6 234.011 373.708 234.011 373.828C234.019 373.948 234.023 374.068 234.023 374.188C234.031 374.3 234.039 374.396 234.047 374.476C234.055 374.564 234.047 374.632 234.023 374.68C234.007 374.728 233.975 374.752 233.927 374.752C233.799 374.752 233.707 374.64 233.651 374.416C233.587 374.192 233.511 374.024 233.423 373.912C233.335 373.8 233.215 373.744 233.063 373.744H231.935C231.831 373.744 231.751 373.764 231.695 373.804C231.639 373.844 231.611 373.92 231.611 374.032V376.312C231.611 376.576 231.667 376.76 231.779 376.864C231.891 376.968 232.063 377.02 232.295 377.02H233.279C233.479 377.02 233.659 377 233.819 376.96C233.987 376.92 234.131 376.856 234.251 376.768C234.387 376.672 234.507 376.544 234.611 376.384C234.723 376.216 234.831 376.032 234.935 375.832C234.967 375.768 234.999 375.728 235.031 375.712C235.063 375.688 235.103 375.676 235.151 375.676C235.191 375.684 235.219 375.708 235.235 375.748C235.259 375.788 235.271 375.832 235.271 375.88C235.271 375.992 235.251 376.136 235.211 376.312C235.171 376.488 235.119 376.672 235.055 376.864C234.999 377.048 234.947 377.22 234.899 377.38C234.875 377.436 234.843 377.476 234.803 377.5C234.763 377.532 234.715 377.548 234.659 377.548C234.467 377.548 234.219 377.544 233.915 377.536C233.619 377.536 233.295 377.532 232.943 377.524C232.591 377.516 232.231 377.508 231.863 377.5C231.495 377.5 231.143 377.5 230.807 377.5C230.639 377.5 230.467 377.504 230.291 377.512C230.123 377.52 229.951 377.528 229.775 377.536C229.599 377.552 229.419 377.56 229.235 377.56Z" fill="white"/>
<path d="M227.182 377.752C226.838 377.752 226.538 377.712 226.282 377.632C226.026 377.56 225.806 377.452 225.622 377.308C225.438 377.164 225.27 376.996 225.118 376.804C224.942 376.564 224.77 376.332 224.602 376.108C224.434 375.876 224.262 375.624 224.086 375.352C223.918 375.072 223.73 374.74 223.522 374.356C223.418 374.172 223.286 374.036 223.126 373.948C223.022 373.892 222.914 373.852 222.802 373.828C222.698 373.804 222.61 373.792 222.538 373.792C222.49 373.784 222.454 373.804 222.43 373.852C222.406 373.9 222.394 373.96 222.394 374.032V376.264C222.394 376.512 222.458 376.704 222.586 376.84C222.722 376.976 222.95 377.08 223.27 377.152C223.374 377.168 223.45 377.196 223.498 377.236C223.546 377.268 223.57 377.316 223.57 377.38C223.57 377.436 223.546 377.476 223.498 377.5C223.458 377.524 223.394 377.536 223.306 377.536C223.122 377.536 222.934 377.528 222.742 377.512C222.55 377.504 222.362 377.496 222.178 377.488C222.002 377.48 221.834 377.476 221.674 377.476C221.498 377.476 221.314 377.48 221.122 377.488C220.938 377.496 220.75 377.508 220.558 377.524C220.366 377.54 220.174 377.548 219.982 377.548C219.91 377.548 219.846 377.532 219.79 377.5C219.734 377.476 219.706 377.44 219.706 377.392C219.706 377.272 219.806 377.192 220.006 377.152C220.31 377.088 220.526 377 220.654 376.888C220.782 376.776 220.846 376.588 220.846 376.324V371.02C220.846 370.788 220.826 370.612 220.786 370.492C220.754 370.364 220.686 370.268 220.582 370.204C220.478 370.14 220.322 370.092 220.114 370.06C220.002 370.044 219.922 370.012 219.874 369.964C219.826 369.916 219.802 369.868 219.802 369.82C219.802 369.764 219.826 369.724 219.874 369.7C219.93 369.668 220.002 369.652 220.09 369.652C220.33 369.652 220.522 369.656 220.666 369.664C220.81 369.672 220.946 369.684 221.074 369.7C221.21 369.708 221.37 369.712 221.554 369.712C221.73 369.712 221.886 369.704 222.022 369.688C222.158 369.672 222.31 369.656 222.478 369.64C222.646 369.624 222.862 369.616 223.126 369.616C224.046 369.616 224.75 369.776 225.238 370.096C225.726 370.416 225.97 370.904 225.97 371.56C225.97 371.92 225.894 372.228 225.742 372.484C225.59 372.732 225.398 372.936 225.166 373.096C224.942 373.256 224.71 373.38 224.47 373.468C224.438 373.476 224.422 373.496 224.422 373.528C224.43 373.56 224.446 373.588 224.47 373.612C224.71 373.98 224.942 374.332 225.166 374.668C225.398 374.996 225.638 375.308 225.886 375.604C226.142 375.9 226.418 376.184 226.714 376.456C226.962 376.688 227.214 376.828 227.47 376.876C227.734 376.916 228.006 376.936 228.286 376.936C228.406 376.936 228.466 376.996 228.466 377.116C228.466 377.276 228.406 377.404 228.286 377.5C228.166 377.588 228.006 377.652 227.806 377.692C227.614 377.732 227.406 377.752 227.182 377.752ZM222.91 373.444C223.238 373.444 223.51 373.372 223.726 373.228C223.95 373.076 224.118 372.876 224.23 372.628C224.35 372.38 224.41 372.104 224.41 371.8C224.41 371.44 224.366 371.136 224.278 370.888C224.19 370.632 224.038 370.436 223.822 370.3C223.614 370.156 223.326 370.084 222.958 370.084C222.75 370.084 222.606 370.16 222.526 370.312C222.454 370.456 222.414 370.752 222.406 371.2C222.398 371.384 222.394 371.628 222.394 371.932C222.394 372.228 222.394 372.584 222.394 373C222.394 373.176 222.438 373.296 222.526 373.36C222.622 373.416 222.75 373.444 222.91 373.444Z" fill="white"/>
<path d="M212.97 377.56C212.882 377.56 212.81 377.544 212.754 377.512C212.706 377.48 212.682 377.44 212.682 377.392C212.682 377.288 212.786 377.212 212.994 377.164C213.282 377.092 213.486 377.004 213.606 376.9C213.734 376.788 213.798 376.6 213.798 376.336V370.9C213.798 370.628 213.742 370.436 213.63 370.324C213.526 370.212 213.326 370.124 213.03 370.06C212.918 370.036 212.838 370.004 212.79 369.964C212.742 369.916 212.718 369.868 212.718 369.82C212.718 369.764 212.742 369.724 212.79 369.7C212.846 369.668 212.918 369.652 213.006 369.652C213.238 369.652 213.458 369.656 213.666 369.664C213.882 369.672 214.09 369.68 214.29 369.688C214.49 369.696 214.698 369.7 214.914 369.7C215.282 369.7 215.67 369.696 216.078 369.688C216.494 369.68 216.866 369.676 217.194 369.676C217.458 369.668 217.674 369.656 217.842 369.64C218.018 369.624 218.122 369.616 218.154 369.616C218.21 369.616 218.266 369.628 218.322 369.652C218.386 369.676 218.422 369.724 218.43 369.796C218.462 370.06 218.502 370.32 218.55 370.576C218.598 370.832 218.622 371.056 218.622 371.248C218.622 371.32 218.602 371.376 218.562 371.416C218.53 371.448 218.494 371.464 218.454 371.464C218.414 371.464 218.378 371.452 218.346 371.428C218.314 371.396 218.286 371.352 218.262 371.296C218.198 371.112 218.138 370.952 218.082 370.816C218.026 370.68 217.962 370.576 217.89 370.504C217.786 370.392 217.666 370.304 217.53 370.24C217.394 370.176 217.23 370.144 217.038 370.144H215.922C215.778 370.144 215.646 370.188 215.526 370.276C215.406 370.356 215.346 370.472 215.346 370.624V372.976C215.346 373.064 215.37 373.132 215.418 373.18C215.474 373.228 215.538 373.252 215.61 373.252H216.714C216.93 373.252 217.082 373.192 217.17 373.072C217.266 372.952 217.346 372.788 217.41 372.58C217.466 372.42 217.542 372.34 217.638 372.34C217.678 372.34 217.714 372.364 217.746 372.412C217.778 372.452 217.794 372.508 217.794 372.58C217.786 372.66 217.778 372.756 217.77 372.868C217.762 372.98 217.754 373.092 217.746 373.204C217.746 373.316 217.746 373.416 217.746 373.504C217.746 373.6 217.746 373.708 217.746 373.828C217.754 373.948 217.758 374.068 217.758 374.188C217.766 374.3 217.774 374.396 217.782 374.476C217.79 374.564 217.782 374.632 217.758 374.68C217.742 374.728 217.71 374.752 217.662 374.752C217.534 374.752 217.442 374.64 217.386 374.416C217.322 374.192 217.246 374.024 217.158 373.912C217.07 373.8 216.95 373.744 216.798 373.744H215.67C215.566 373.744 215.486 373.764 215.43 373.804C215.374 373.844 215.346 373.92 215.346 374.032V376.312C215.346 376.576 215.402 376.76 215.514 376.864C215.626 376.968 215.798 377.02 216.03 377.02H217.014C217.214 377.02 217.394 377 217.554 376.96C217.722 376.92 217.866 376.856 217.986 376.768C218.122 376.672 218.242 376.544 218.346 376.384C218.458 376.216 218.566 376.032 218.67 375.832C218.702 375.768 218.734 375.728 218.766 375.712C218.798 375.688 218.838 375.676 218.886 375.676C218.926 375.684 218.954 375.708 218.97 375.748C218.994 375.788 219.006 375.832 219.006 375.88C219.006 375.992 218.986 376.136 218.946 376.312C218.906 376.488 218.854 376.672 218.79 376.864C218.734 377.048 218.682 377.22 218.634 377.38C218.61 377.436 218.578 377.476 218.538 377.5C218.498 377.532 218.45 377.548 218.394 377.548C218.202 377.548 217.954 377.544 217.65 377.536C217.354 377.536 217.03 377.532 216.678 377.524C216.326 377.516 215.966 377.508 215.598 377.5C215.23 377.5 214.878 377.5 214.542 377.5C214.374 377.5 214.202 377.504 214.026 377.512C213.858 377.52 213.686 377.528 213.51 377.536C213.334 377.552 213.154 377.56 212.97 377.56Z" fill="white"/>
<path d="M203.073 377.548C203.001 377.548 202.937 377.532 202.881 377.5C202.825 377.468 202.797 377.428 202.797 377.38C202.797 377.268 202.897 377.192 203.097 377.152C203.385 377.088 203.577 377 203.673 376.888C203.769 376.776 203.817 376.588 203.817 376.324V370.888C203.817 370.624 203.777 370.436 203.697 370.324C203.617 370.212 203.429 370.124 203.133 370.06C202.933 370.02 202.833 369.94 202.833 369.82C202.833 369.764 202.857 369.724 202.905 369.7C202.961 369.668 203.029 369.652 203.109 369.652C203.301 369.652 203.481 369.656 203.649 369.664C203.817 369.672 203.981 369.68 204.141 369.688C204.301 369.696 204.461 369.7 204.621 369.7C204.781 369.7 204.945 369.696 205.113 369.688C205.289 369.68 205.469 369.672 205.653 369.664C205.837 369.656 206.021 369.652 206.205 369.652C206.381 369.652 206.469 369.712 206.469 369.832C206.469 369.896 206.445 369.944 206.397 369.976C206.349 370.008 206.273 370.036 206.169 370.06C205.857 370.14 205.645 370.24 205.533 370.36C205.429 370.48 205.377 370.66 205.377 370.9V373.132C205.377 373.188 205.393 373.228 205.425 373.252C205.465 373.268 205.509 373.276 205.557 373.276H209.145C209.233 373.276 209.277 373.22 209.277 373.108V370.888C209.277 370.656 209.225 370.48 209.121 370.36C209.017 370.24 208.809 370.14 208.497 370.06C208.393 370.036 208.313 370.008 208.257 369.976C208.209 369.944 208.185 369.896 208.185 369.832C208.185 369.712 208.273 369.652 208.449 369.652C208.641 369.652 208.833 369.656 209.025 369.664C209.217 369.672 209.401 369.68 209.577 369.688C209.761 369.696 209.937 369.7 210.105 369.7C210.257 369.7 210.405 369.696 210.549 369.688C210.693 369.68 210.845 369.672 211.005 369.664C211.173 369.656 211.353 369.652 211.545 369.652C211.617 369.652 211.681 369.668 211.737 369.7C211.793 369.724 211.821 369.764 211.821 369.82C211.821 369.94 211.717 370.02 211.509 370.06C211.229 370.124 211.045 370.216 210.957 370.336C210.877 370.456 210.837 370.64 210.837 370.888V376.324C210.837 376.588 210.881 376.776 210.969 376.888C211.057 377 211.245 377.088 211.533 377.152C211.733 377.192 211.833 377.268 211.833 377.38C211.833 377.428 211.805 377.468 211.749 377.5C211.693 377.532 211.629 377.548 211.557 377.548C211.373 377.548 211.197 377.54 211.029 377.524C210.861 377.516 210.693 377.508 210.525 377.5C210.365 377.492 210.205 377.488 210.045 377.488C209.885 377.488 209.717 377.492 209.541 377.5C209.365 377.508 209.185 377.516 209.001 377.524C208.817 377.532 208.629 377.536 208.437 377.536C208.365 377.536 208.305 377.524 208.257 377.5C208.209 377.468 208.185 377.424 208.185 377.368C208.185 377.304 208.209 377.26 208.257 377.236C208.305 377.204 208.377 377.176 208.473 377.152C208.761 377.08 208.965 376.984 209.085 376.864C209.213 376.744 209.277 376.564 209.277 376.324V374.044C209.277 373.996 209.269 373.952 209.253 373.912C209.245 373.872 209.213 373.852 209.157 373.852H205.509C205.421 373.852 205.377 373.912 205.377 374.032V376.276C205.377 376.516 205.445 376.704 205.581 376.84C205.725 376.976 205.941 377.08 206.229 377.152C206.333 377.176 206.409 377.204 206.457 377.236C206.505 377.26 206.529 377.304 206.529 377.368C206.529 377.424 206.505 377.468 206.457 377.5C206.417 377.524 206.353 377.536 206.265 377.536C206.081 377.536 205.893 377.532 205.701 377.524C205.509 377.516 205.321 377.508 205.137 377.5C204.961 377.492 204.789 377.488 204.621 377.488C204.453 377.488 204.285 377.492 204.117 377.5C203.949 377.508 203.777 377.516 203.601 377.524C203.425 377.54 203.249 377.548 203.073 377.548Z" fill="white"/>
<path d="M216.42 363.548C216.324 363.548 216.248 363.532 216.192 363.5C216.144 363.476 216.12 363.44 216.12 363.392C216.12 363.328 216.152 363.284 216.216 363.26C216.288 363.228 216.372 363.2 216.468 363.176C216.66 363.12 216.824 363.012 216.96 362.852C217.096 362.692 217.18 362.484 217.212 362.228C217.276 361.74 217.336 361.208 217.392 360.632C217.456 360.056 217.512 359.476 217.56 358.892C217.616 358.308 217.66 357.76 217.692 357.248C217.692 357.192 217.692 357.128 217.692 357.056C217.692 356.984 217.692 356.912 217.692 356.84C217.684 356.72 217.66 356.624 217.62 356.552C217.588 356.472 217.528 356.4 217.44 356.336C217.328 356.256 217.212 356.196 217.092 356.156C216.972 356.108 216.836 356.068 216.684 356.036C216.596 356.02 216.524 355.992 216.468 355.952C216.42 355.904 216.396 355.848 216.396 355.784C216.396 355.72 216.428 355.676 216.492 355.652C216.556 355.628 216.64 355.616 216.744 355.616C216.848 355.616 216.988 355.62 217.164 355.628C217.34 355.636 217.528 355.648 217.728 355.664C217.936 355.672 218.14 355.68 218.34 355.688C218.54 355.696 218.716 355.7 218.868 355.7C218.932 355.7 218.988 355.72 219.036 355.76C219.084 355.8 219.116 355.848 219.132 355.904C219.18 356.056 219.228 356.204 219.276 356.348C219.324 356.492 219.376 356.644 219.432 356.804L221.232 361.208C221.256 361.248 221.288 361.272 221.328 361.28C221.368 361.28 221.396 361.26 221.412 361.22L223.344 356.924C223.4 356.692 223.444 356.488 223.476 356.312C223.516 356.136 223.552 355.996 223.584 355.892C223.608 355.788 223.66 355.736 223.74 355.736H224.232C224.536 355.72 224.856 355.696 225.192 355.664C225.528 355.632 225.788 355.616 225.972 355.616C226.036 355.616 226.096 355.628 226.152 355.652C226.216 355.668 226.248 355.708 226.248 355.772C226.248 355.836 226.224 355.884 226.176 355.916C226.128 355.948 226.056 355.984 225.96 356.024C225.896 356.04 225.82 356.068 225.732 356.108C225.644 356.14 225.568 356.172 225.504 356.204C225.336 356.276 225.208 356.368 225.12 356.48C225.04 356.592 225.004 356.752 225.012 356.96C225.02 357.528 225.036 358.04 225.06 358.496C225.084 358.944 225.104 359.368 225.12 359.768C225.144 360.16 225.172 360.564 225.204 360.98C225.236 361.388 225.264 361.84 225.288 362.336C225.304 362.56 225.388 362.736 225.54 362.864C225.7 362.992 225.912 363.088 226.176 363.152C226.272 363.176 226.348 363.204 226.404 363.236C226.468 363.268 226.5 363.316 226.5 363.38C226.5 363.436 226.472 363.476 226.416 363.5C226.368 363.524 226.3 363.536 226.212 363.536C226.028 363.536 225.836 363.532 225.636 363.524C225.436 363.516 225.24 363.508 225.048 363.5C224.864 363.492 224.688 363.488 224.52 363.488C224.36 363.488 224.196 363.492 224.028 363.5C223.86 363.508 223.688 363.516 223.512 363.524C223.336 363.54 223.152 363.548 222.96 363.548C222.88 363.548 222.808 363.532 222.744 363.5C222.688 363.476 222.66 363.44 222.66 363.392C222.66 363.328 222.688 363.276 222.744 363.236C222.808 363.196 222.888 363.168 222.984 363.152C223.256 363.096 223.444 363.012 223.548 362.9C223.66 362.788 223.708 362.6 223.692 362.336C223.684 361.816 223.672 361.316 223.656 360.836C223.64 360.356 223.624 359.88 223.608 359.408C223.592 358.936 223.572 358.46 223.548 357.98C223.54 357.916 223.52 357.888 223.488 357.896C223.464 357.896 223.436 357.928 223.404 357.992L220.956 363.512C220.924 363.6 220.872 363.636 220.8 363.62C220.728 363.612 220.68 363.576 220.656 363.512C220.288 362.584 219.9 361.668 219.492 360.764C219.092 359.852 218.696 358.928 218.304 357.992C218.28 357.928 218.244 357.904 218.196 357.92C218.156 357.936 218.132 357.98 218.124 358.052C218.084 358.5 218.048 358.964 218.016 359.444C217.984 359.916 217.964 360.388 217.956 360.86C217.948 361.332 217.944 361.8 217.944 362.264C217.944 362.48 218.012 362.664 218.148 362.816C218.292 362.968 218.508 363.08 218.796 363.152C218.892 363.168 218.972 363.196 219.036 363.236C219.108 363.268 219.144 363.316 219.144 363.38C219.144 363.436 219.112 363.476 219.048 363.5C218.984 363.524 218.912 363.536 218.832 363.536C218.616 363.536 218.452 363.532 218.34 363.524C218.228 363.516 218.124 363.508 218.028 363.5C217.932 363.492 217.804 363.488 217.644 363.488C217.476 363.488 217.316 363.492 217.164 363.5C217.02 363.508 216.884 363.516 216.756 363.524C216.628 363.54 216.516 363.548 216.42 363.548Z" fill="white"/>
<path d="M213.393 358.532C213.209 358.532 213.117 358.472 213.117 358.352C213.117 358.304 213.137 358.268 213.177 358.244C213.217 358.22 213.277 358.196 213.357 358.172C213.557 358.124 213.737 358.052 213.897 357.956C214.057 357.86 214.185 357.736 214.281 357.584C214.377 357.424 214.425 357.24 214.425 357.032C214.425 356.904 214.377 356.792 214.281 356.696C214.185 356.592 214.069 356.528 213.933 356.504C213.789 356.48 213.665 356.412 213.561 356.3C213.457 356.188 213.405 356.048 213.405 355.88C213.405 355.688 213.485 355.528 213.645 355.4C213.805 355.264 213.985 355.196 214.185 355.196C214.521 355.196 214.793 355.312 215.001 355.544C215.217 355.768 215.325 356.06 215.325 356.42C215.325 356.732 215.265 357.02 215.145 357.284C215.025 357.54 214.869 357.76 214.677 357.944C214.485 358.128 214.277 358.272 214.053 358.376C213.829 358.48 213.609 358.532 213.393 358.532Z" fill="white"/>
<path d="M208.719 363.548C208.647 363.548 208.583 363.532 208.527 363.5C208.471 363.476 208.443 363.44 208.443 363.392C208.443 363.272 208.543 363.192 208.743 363.152C209.047 363.088 209.267 363 209.403 362.888C209.539 362.776 209.607 362.592 209.607 362.336V356.888C209.607 356.624 209.551 356.436 209.439 356.324C209.327 356.212 209.115 356.124 208.803 356.06C208.603 356.02 208.503 355.936 208.503 355.808C208.503 355.76 208.531 355.724 208.587 355.7C208.643 355.668 208.707 355.652 208.779 355.652C208.971 355.652 209.159 355.656 209.343 355.664C209.527 355.672 209.703 355.68 209.871 355.688C210.047 355.696 210.223 355.7 210.399 355.7C210.567 355.7 210.735 355.696 210.903 355.688C211.079 355.68 211.259 355.672 211.443 355.664C211.627 355.656 211.815 355.652 212.007 355.652C212.087 355.652 212.151 355.668 212.199 355.7C212.247 355.724 212.271 355.764 212.271 355.82C212.271 355.884 212.243 355.936 212.187 355.976C212.139 356.008 212.067 356.036 211.971 356.06C211.651 356.14 211.435 356.236 211.323 356.348C211.211 356.46 211.155 356.644 211.155 356.9V362.324C211.155 362.572 211.219 362.752 211.347 362.864C211.483 362.976 211.703 363.072 212.007 363.152C212.111 363.176 212.187 363.204 212.235 363.236C212.291 363.268 212.319 363.316 212.319 363.38C212.319 363.436 212.295 363.476 212.247 363.5C212.199 363.524 212.135 363.536 212.055 363.536C211.863 363.536 211.671 363.532 211.479 363.524C211.287 363.516 211.099 363.508 210.915 363.5C210.739 363.492 210.567 363.488 210.399 363.488C210.223 363.488 210.043 363.492 209.859 363.5C209.675 363.508 209.487 363.516 209.295 363.524C209.103 363.54 208.911 363.548 208.719 363.548Z" fill="white"/>
<path d="M93.5141 326.584C93.3834 326.584 93.2714 326.547 93.1781 326.472C93.0848 326.397 93.0381 326.304 93.0381 326.192C93.0381 325.949 93.1968 325.781 93.5141 325.688C94.1114 325.539 94.6061 325.399 94.9981 325.268C95.4088 325.119 95.7168 324.923 95.9221 324.68C96.1274 324.437 96.2301 324.092 96.2301 323.644V313.312C96.2301 312.883 96.1088 312.565 95.8661 312.36C95.6421 312.136 95.3528 311.977 94.9981 311.884C94.6434 311.791 94.2608 311.716 93.8501 311.66C93.6821 311.641 93.5141 311.595 93.3461 311.52C93.1968 311.427 93.1221 311.277 93.1221 311.072C93.1221 310.885 93.1968 310.745 93.3461 310.652C93.5141 310.54 93.7101 310.475 93.9341 310.456C94.9421 310.344 95.8474 310.167 96.6501 309.924C97.4528 309.681 98.2554 309.289 99.0581 308.748C99.0768 308.729 99.1048 308.72 99.1421 308.72C99.1981 308.701 99.2541 308.692 99.3101 308.692C99.4221 308.692 99.5248 308.72 99.6181 308.776C99.7301 308.813 99.7861 308.879 99.7861 308.972C99.7674 309.215 99.7394 309.495 99.7021 309.812C99.6648 310.129 99.6461 310.521 99.6461 310.988V323.756C99.6461 324.167 99.7488 324.484 99.9541 324.708C100.178 324.932 100.495 325.119 100.906 325.268C101.317 325.399 101.83 325.548 102.446 325.716C102.595 325.753 102.717 325.809 102.81 325.884C102.903 325.959 102.95 326.061 102.95 326.192C102.95 326.435 102.81 326.556 102.53 326.556C102.082 326.556 101.587 326.547 101.046 326.528C100.505 326.509 99.9728 326.491 99.4501 326.472C98.9274 326.453 98.4514 326.444 98.0221 326.444C97.5741 326.444 97.0888 326.453 96.5661 326.472C96.0434 326.491 95.5114 326.509 94.9701 326.528C94.4474 326.565 93.9621 326.584 93.5141 326.584Z" fill="#FFF0C2"/>
<path d="M70.6422 370.612C70.5115 370.612 70.2502 370.603 69.8582 370.584C69.4848 370.565 69.0368 370.547 68.5142 370.528C68.0102 370.509 67.4875 370.5 66.9462 370.5C66.4235 370.481 65.9475 370.472 65.5182 370.472C65.0888 370.472 64.5942 370.481 64.0342 370.5C63.4928 370.5 62.9515 370.5 62.4102 370.5C61.8688 370.519 61.4022 370.537 61.0102 370.556C60.6182 370.575 60.3755 370.584 60.2822 370.584C60.2262 370.584 60.1142 370.528 59.9462 370.416C59.7968 370.304 59.7222 370.201 59.7222 370.108C59.7222 369.959 59.7595 369.856 59.8342 369.8C59.9088 369.725 59.9835 369.651 60.0582 369.576L64.3702 364.872C65.3222 363.845 66.0595 362.772 66.5822 361.652C67.1235 360.513 67.3942 359.309 67.3942 358.04C67.3942 357.181 67.1608 356.481 66.6942 355.94C66.2275 355.38 65.6208 355.1 64.8742 355.1C64.1835 355.1 63.5302 355.296 62.9142 355.688C62.3168 356.08 61.8222 356.537 61.4302 357.06C61.3368 357.172 61.2248 357.284 61.0942 357.396C60.9635 357.508 60.8142 357.564 60.6462 357.564C60.5342 357.564 60.4408 357.499 60.3662 357.368C60.2915 357.237 60.2542 357.069 60.2542 356.864C60.2542 356.584 60.4035 356.229 60.7022 355.8C61.0008 355.352 61.4115 354.904 61.9342 354.456C62.4755 354.008 63.0915 353.635 63.7822 353.336C64.4915 353.019 65.2475 352.86 66.0502 352.86C67.0022 352.86 67.8142 353.075 68.4862 353.504C69.1582 353.915 69.6715 354.475 70.0262 355.184C70.3808 355.875 70.5582 356.659 70.5582 357.536C70.5582 358.04 70.4462 358.6 70.2222 359.216C70.0168 359.813 69.7462 360.401 69.4102 360.98C69.0742 361.54 68.7288 362.035 68.3742 362.464C68.0942 362.781 67.7302 363.164 67.2822 363.612C66.8528 364.041 66.3955 364.499 65.9102 364.984C65.4248 365.451 64.9675 365.899 64.5382 366.328C64.1088 366.739 63.7542 367.084 63.4742 367.364C63.2128 367.625 63.0822 367.775 63.0822 367.812C63.0822 367.887 63.2222 367.943 63.5022 367.98C63.8382 368.017 64.2302 368.045 64.6782 368.064C65.1262 368.083 65.5648 368.092 65.9942 368.092C66.4608 368.092 66.9182 368.083 67.3662 368.064C67.8328 368.045 68.2808 368.017 68.7102 367.98C69.1768 367.943 69.5595 367.877 69.8582 367.784C70.1568 367.672 70.4182 367.513 70.6422 367.308C70.8848 367.084 71.0995 366.785 71.2862 366.412C71.3422 366.281 71.4355 366.151 71.5662 366.02C71.7155 365.871 71.8742 365.796 72.0422 365.796C72.1728 365.796 72.2568 365.852 72.2942 365.964C72.3315 366.057 72.3408 366.16 72.3222 366.272C72.2102 366.627 72.0702 367.047 71.9022 367.532C71.7528 367.999 71.6128 368.456 71.4822 368.904C71.3515 369.333 71.2675 369.688 71.2302 369.968C71.2115 370.192 71.1182 370.36 70.9502 370.472C70.8008 370.565 70.6982 370.612 70.6422 370.612Z" fill="#FFF0C2"/>
<path d="M348.314 394.584C348.202 394.584 348.071 394.556 347.922 394.5C347.791 394.425 347.726 394.323 347.726 394.192C347.726 394.043 347.791 393.931 347.922 393.856C348.053 393.781 348.183 393.725 348.314 393.688C349.098 393.557 349.621 393.38 349.882 393.156C350.162 392.913 350.302 392.531 350.302 392.008V390.076C350.302 389.983 350.246 389.917 350.134 389.88C350.022 389.824 349.929 389.796 349.854 389.796C349.219 389.796 348.538 389.815 347.81 389.852C347.101 389.889 346.363 389.927 345.598 389.964C344.833 389.983 344.058 390.001 343.274 390.02C343.181 390.02 343.097 389.992 343.022 389.936C342.947 389.88 342.91 389.824 342.91 389.768C342.91 389.712 342.938 389.637 342.994 389.544C343.162 389.32 343.293 389.152 343.386 389.04C343.479 388.928 343.563 388.825 343.638 388.732C343.731 388.62 343.825 388.489 343.918 388.34L351.002 377.448C351.133 377.224 351.301 377.019 351.506 376.832C351.73 376.627 351.935 376.524 352.122 376.524H352.458C352.607 376.524 352.673 376.599 352.654 376.748C352.654 376.879 352.626 376.972 352.57 377.028L345.682 387.64C345.626 387.733 345.607 387.817 345.626 387.892C345.663 387.948 345.729 387.976 345.822 387.976H350.05C350.106 387.976 350.162 387.957 350.218 387.92C350.274 387.864 350.302 387.817 350.302 387.78V384.084C350.302 383.804 350.321 383.608 350.358 383.496C350.414 383.384 350.526 383.291 350.694 383.216C351.123 383.011 351.581 382.88 352.066 382.824C352.57 382.749 352.915 382.712 353.102 382.712C353.419 382.712 353.606 382.889 353.662 383.244C353.718 383.58 353.746 384.075 353.746 384.728V387.92C353.746 388.032 353.793 388.088 353.886 388.088C354.11 388.107 354.297 388.116 354.446 388.116C354.595 388.116 354.754 388.116 354.922 388.116C355.202 388.116 355.463 388.116 355.706 388.116C355.949 388.097 356.229 388.079 356.546 388.06C356.77 388.06 356.882 388.135 356.882 388.284C356.882 388.433 356.835 388.629 356.742 388.872C356.667 389.115 356.583 389.339 356.49 389.544C356.397 389.731 356.322 389.824 356.266 389.824C356.042 389.824 355.818 389.824 355.594 389.824C355.37 389.805 355.146 389.796 354.922 389.796C354.735 389.796 354.586 389.805 354.474 389.824C354.381 389.824 354.269 389.833 354.138 389.852C354.063 389.871 353.979 389.899 353.886 389.936C353.811 389.973 353.774 390.001 353.774 390.02V391.924C353.774 392.465 353.895 392.848 354.138 393.072C354.381 393.277 354.866 393.483 355.594 393.688C355.743 393.744 355.883 393.809 356.014 393.884C356.145 393.959 356.21 394.061 356.21 394.192C356.21 394.304 356.154 394.397 356.042 394.472C355.949 394.528 355.827 394.556 355.678 394.556C355.23 394.556 354.791 394.547 354.362 394.528C353.951 394.509 353.55 394.491 353.158 394.472C352.766 394.453 352.374 394.444 351.982 394.444C351.553 394.444 351.142 394.453 350.75 394.472C350.377 394.491 349.985 394.509 349.574 394.528C349.182 394.565 348.762 394.584 348.314 394.584Z" fill="#FFF0C2"/>
<path d="M393.054 425.564C392.625 425.564 392.177 425.499 391.71 425.368C391.262 425.237 390.88 425.069 390.562 424.864C390.264 424.659 390.114 424.453 390.114 424.248C390.114 424.043 390.161 423.819 390.254 423.576C390.366 423.333 390.506 423.128 390.674 422.96C390.842 422.773 391.01 422.68 391.178 422.68C391.346 422.68 391.496 422.727 391.626 422.82C391.776 422.913 391.916 423.025 392.046 423.156C392.308 423.417 392.606 423.697 392.942 423.996C393.297 424.276 393.708 424.416 394.174 424.416C394.809 424.416 395.388 424.248 395.91 423.912C396.433 423.576 396.862 423.109 397.198 422.512C397.534 421.896 397.702 421.177 397.702 420.356C397.702 419.609 397.59 418.928 397.366 418.312C397.142 417.696 396.816 417.201 396.386 416.828C395.957 416.455 395.425 416.268 394.79 416.268C394.398 416.268 394.044 416.333 393.726 416.464C393.428 416.576 393.176 416.688 392.97 416.8C392.84 416.875 392.69 416.875 392.522 416.8C392.373 416.707 392.308 416.595 392.326 416.464C392.42 416.147 392.56 415.885 392.746 415.68C392.952 415.456 393.166 415.288 393.39 415.176C393.82 414.952 394.23 414.709 394.622 414.448C395.033 414.187 395.397 413.897 395.714 413.58C396.05 413.263 396.312 412.908 396.498 412.516C396.704 412.124 396.806 411.685 396.806 411.2C396.806 410.547 396.582 409.977 396.134 409.492C395.705 409.007 395.145 408.764 394.454 408.764C393.857 408.764 393.353 408.885 392.942 409.128C392.532 409.352 392.196 409.623 391.934 409.94C391.673 410.239 391.468 410.509 391.318 410.752C391.169 410.976 391.048 411.088 390.954 411.088C390.842 411.088 390.721 411.023 390.59 410.892C390.46 410.743 390.394 410.593 390.394 410.444C390.394 410.257 390.497 409.968 390.702 409.576C390.908 409.184 391.234 408.783 391.682 408.372C392.13 407.961 392.7 407.616 393.39 407.336C394.1 407.037 394.958 406.888 395.966 406.888C396.657 406.888 397.301 407.028 397.898 407.308C398.496 407.569 398.981 407.952 399.354 408.456C399.728 408.941 399.914 409.52 399.914 410.192C399.914 410.621 399.793 411.107 399.55 411.648C399.326 412.171 398.953 412.675 398.43 413.16C397.926 413.627 397.254 414 396.414 414.28C396.358 414.299 396.33 414.336 396.33 414.392C396.33 414.429 396.368 414.448 396.442 414.448C397.357 414.448 398.169 414.635 398.878 415.008C399.588 415.381 400.148 415.895 400.558 416.548C400.988 417.201 401.202 417.967 401.202 418.844C401.202 419.871 400.969 420.795 400.502 421.616C400.054 422.437 399.438 423.147 398.654 423.744C397.889 424.323 397.021 424.771 396.05 425.088C395.08 425.405 394.081 425.564 393.054 425.564Z" fill="#FFF0C2"/>
<mask id="mask0_315_48" style="mask-type:alpha" maskUnits="userSpaceOnUse" x="317" y="290" width="33" height="33">
<rect x="317.5" y="290.5" width="32" height="32" fill="#D9D9D9"/>
</mask>
<g mask="url(#mask0_315_48)">
<path d="M325.142 319.5V309.833H323.305V302.374C323.305 301.768 323.521 301.249 323.954 300.816C324.387 300.383 324.901 300.167 325.497 300.167H329.042C329.644 300.167 330.161 300.383 330.594 300.816C331.027 301.249 331.243 301.768 331.243 302.374V309.833H329.406V319.5H325.142ZM325.613 297.896C325.155 297.439 324.925 296.885 324.925 296.235C324.925 295.585 325.154 295.031 325.611 294.572C326.068 294.114 326.622 293.885 327.272 293.885C327.923 293.885 328.477 294.113 328.935 294.57C329.393 295.028 329.623 295.581 329.623 296.232C329.623 296.882 329.394 297.436 328.937 297.894C328.48 298.353 327.926 298.582 327.276 298.582C326.626 298.582 326.071 298.353 325.613 297.896ZM338.32 319.5V311.833H334.966L337.746 301.65C337.886 301.179 338.151 300.814 338.541 300.555C338.931 300.296 339.381 300.167 339.892 300.167C340.403 300.167 340.852 300.296 341.239 300.555C341.625 300.814 341.889 301.179 342.03 301.65L344.818 311.833H341.455V319.5H338.32ZM338.227 297.896C337.768 297.439 337.539 296.885 337.539 296.235C337.539 295.585 337.768 295.031 338.225 294.572C338.682 294.114 339.236 293.885 339.886 293.885C340.536 293.885 341.09 294.113 341.549 294.57C342.007 295.028 342.236 295.581 342.236 296.232C342.236 296.882 342.008 297.436 341.551 297.894C341.093 298.353 340.54 298.582 339.889 298.582C339.239 298.582 338.685 298.353 338.227 297.896Z" fill="#DAD5C8"/>
</g>
<mask id="mask1_315_48" style="mask-type:alpha" maskUnits="userSpaceOnUse" x="317" y="126" width="33" height="33">
<rect x="317.5" y="126.5" width="32" height="32" fill="#D9D9D9"/>
</mask>
<g mask="url(#mask1_315_48)">
<path d="M320.833 151.167V149.491H328.715V141.662H336.596V133.833H346.166V135.509H338.285V143.338H330.403V151.167H320.833Z" fill="#DAD5C8"/>
</g>
</svg>
