<svg width="32" height="32" viewBox="0 0 32 32" fill="none" xmlns="http://www.w3.org/2000/svg">
<mask id="mask0_235_30" style="mask-type:alpha" maskUnits="userSpaceOnUse" x="0" y="0" width="32" height="32">
<rect width="32" height="32" fill="#D9D9D9"/>
</mask>
<g mask="url(#mask0_235_30)">
<path d="M15.9964 23.27C12.984 23.27 10.2855 22.4491 7.90108 20.8073C5.51686 19.1653 3.77208 17.0392 2.66675 14.429C3.68897 11.869 5.39675 9.76343 7.79008 8.11232C10.1836 6.46143 12.9166 5.63599 15.9891 5.63599C19.0271 5.63599 21.7417 6.45865 24.1331 8.10399C26.5242 9.7491 28.2593 11.886 29.3384 14.5147C28.3162 17.0564 26.603 19.1511 24.1987 20.7987C21.7945 22.4462 19.0604 23.27 15.9964 23.27ZM6.25208 25.5487C5.49319 25.0251 4.81319 24.4511 4.21208 23.8267C3.61097 23.2022 3.09953 22.507 2.67775 21.741L3.68475 21.1873C4.06075 21.8384 4.51697 22.4523 5.05341 23.029C5.58986 23.6057 6.20997 24.1308 6.91375 24.6043L6.25208 25.5487ZM8.98808 27.001L9.37442 25.918C10.1755 26.2375 11.0189 26.5042 11.9044 26.718C12.7897 26.9315 13.71 27.0717 14.6651 27.1383L14.5761 28.2973C13.563 28.2255 12.5911 28.0805 11.6604 27.8623C10.7295 27.6441 9.83875 27.357 8.98808 27.001ZM16.0001 19.5403C17.3961 19.5403 18.589 19.0447 19.5787 18.0533C20.5685 17.062 21.0634 15.8615 21.0634 14.452C21.0634 13.048 20.5685 11.8544 19.5787 10.8713C18.589 9.88821 17.3961 9.39665 16.0001 9.39665C14.5927 9.39665 13.397 9.88932 12.4127 10.8747C11.4287 11.86 10.9367 13.0524 10.9367 14.452C10.9367 15.8571 11.4287 17.0564 12.4127 18.05C13.397 19.0435 14.5927 19.5403 16.0001 19.5403ZM15.9974 18.653C14.8363 18.653 13.8504 18.2398 13.0397 17.4133C12.2293 16.5867 11.8241 15.6013 11.8241 14.4573C11.8241 13.3073 12.2302 12.3242 13.0424 11.508C13.8546 10.6918 14.8414 10.2837 16.0027 10.2837C17.1639 10.2837 18.1497 10.6927 18.9604 11.5107C19.7709 12.3287 20.1761 13.3125 20.1761 14.4623C20.1761 15.6065 19.77 16.591 18.9577 17.4157C18.1455 18.2405 17.1587 18.653 15.9974 18.653ZM17.4497 28.2973L17.3607 27.1383C18.3043 27.0717 19.2123 26.9315 20.0847 26.718C20.957 26.5042 21.8023 26.2375 22.6207 25.918L23.0291 27.023C22.1591 27.3683 21.2611 27.6491 20.3351 27.8653C19.4091 28.0815 18.4473 28.2255 17.4497 28.2973ZM25.7257 25.5487L25.1034 24.6187C25.7925 24.1333 26.4066 23.6067 26.9457 23.0387C27.4851 22.4704 27.9343 21.855 28.2934 21.1923L29.3001 21.7103C28.907 22.4521 28.407 23.1457 27.8001 23.791C27.1932 24.4363 26.5017 25.0222 25.7257 25.5487Z" fill="#E7D498"/>
</g>
</svg>
