<svg width="40" height="40" viewBox="0 0 40 40" fill="none" xmlns="http://www.w3.org/2000/svg">
<mask id="mask0_64_65" style="mask-type:alpha" maskUnits="userSpaceOnUse" x="0" y="0" width="40" height="40">
<rect width="40" height="40" fill="#D9D9D9"/>
</mask>
<g mask="url(#mask0_64_65)">
<path d="M21.3634 17.8271V7.88459C21.3634 7.53959 21.4809 7.25028 21.7159 7.01667C21.9509 6.78334 22.2422 6.66667 22.5897 6.66667H32.1197C32.4672 6.66667 32.7563 6.78334 32.9872 7.01667C33.218 7.25028 33.3334 7.53959 33.3334 7.88459V13.6879C33.3334 14.0193 33.2167 14.3051 32.9834 14.5454C32.7498 14.7857 32.4605 14.9058 32.1155 14.9058H24.3592L21.3634 17.8271ZM22.7734 13.4958H31.923V8.07709H22.7734V13.4958ZM31.5109 33.3333C28.7823 33.3333 25.9492 32.6231 23.0117 31.2025C20.0745 29.7819 17.3263 27.7868 14.7672 25.2171C12.208 22.6471 10.2181 19.8988 8.79758 16.9721C7.37703 14.0454 6.66675 11.2178 6.66675 8.48917C6.66675 7.96862 6.8373 7.53473 7.17841 7.18751C7.51953 6.84028 7.94578 6.66667 8.45716 6.66667H12.2826C12.7537 6.66667 13.1524 6.81042 13.4788 7.09792C13.8049 7.38514 14.0322 7.76348 14.1605 8.23292L15.013 12.0221C15.0772 12.4718 15.0579 12.8718 14.9551 13.2221C14.8526 13.5726 14.6738 13.8611 14.4188 14.0875L10.7276 17.5321C11.4656 18.8318 12.2554 20.0325 13.0967 21.1342C13.9384 22.2356 14.8324 23.2671 15.7788 24.2288C16.8011 25.2693 17.899 26.2235 19.0726 27.0913C20.2465 27.9593 21.5292 28.7743 22.9209 29.5363L26.513 25.8613C26.7886 25.5599 27.0904 25.3601 27.4184 25.2621C27.7465 25.1643 28.1106 25.1432 28.5109 25.1988L31.7672 25.9038C32.2386 26.0007 32.6174 26.2295 32.9038 26.59C33.1902 26.9503 33.3334 27.3633 33.3334 27.8292V31.5429C33.3334 32.0543 33.1598 32.4806 32.8126 32.8217C32.4654 33.1628 32.0315 33.3333 31.5109 33.3333ZM10.0397 16.2521L13.4413 13.1004C13.5338 13.0149 13.5962 12.8974 13.6284 12.7479C13.6604 12.5982 13.6622 12.4593 13.6338 12.3313L12.8122 8.58959C12.7836 8.41876 12.7123 8.29056 12.5984 8.205C12.4845 8.11973 12.342 8.07709 12.1709 8.07709H8.52883C8.40078 8.07709 8.29397 8.11973 8.20841 8.205C8.12286 8.29056 8.08008 8.3975 8.08008 8.52584C8.08508 9.66889 8.25897 10.8882 8.60175 12.1838C8.94425 13.4793 9.42355 14.8354 10.0397 16.2521ZM24.2788 30.1967C25.4136 30.7772 26.652 31.2089 27.9942 31.4917C29.3365 31.7742 30.4965 31.9229 31.4742 31.9379C31.6026 31.9379 31.7095 31.8953 31.7951 31.81C31.8804 31.7244 31.923 31.6175 31.923 31.4892V27.8933C31.923 27.7222 31.8804 27.5797 31.7951 27.4658C31.7095 27.3519 31.5813 27.2807 31.4105 27.2521L28.2051 26.5867C28.077 26.5581 27.9649 26.5599 27.8688 26.5921C27.7724 26.624 27.6709 26.6863 27.5642 26.7788L24.2788 30.1967Z" fill="#DAD5C8"/>
</g>
</svg>
