<svg width="115" height="23" viewBox="0 0 115 23" fill="none" xmlns="http://www.w3.org/2000/svg">
<path d="M0.89597 22.432C0.63997 22.432 0.426637 22.3893 0.25597 22.304C0.0853035 22.24 -2.9847e-05 22.1333 -2.9847e-05 21.984C-2.9847e-05 21.8133 0.0853035 21.6747 0.25597 21.568C0.426637 21.4613 0.661304 21.3547 0.95997 21.248C1.53597 21.0773 2.05864 20.8213 2.52797 20.48C2.9973 20.1387 3.3813 19.616 3.67997 18.912C4.25597 17.6107 4.7893 16.3733 5.27997 15.2C5.77064 14.0053 6.23997 12.832 6.68797 11.68C7.13597 10.528 7.59464 9.344 8.06397 8.128C8.5333 6.89067 9.0133 5.57867 9.50397 4.192C9.69597 3.70134 9.83464 3.296 9.91997 2.976C10.0053 2.63467 10.0586 2.336 10.08 2.08C10.3573 2.016 10.6133 1.952 10.848 1.888C11.0826 1.80267 11.3386 1.68534 11.616 1.536C11.872 1.408 12.064 1.22667 12.192 0.992002C12.3413 0.736002 12.4586 0.554668 12.544 0.448002C12.5866 0.426669 12.6293 0.416002 12.672 0.416002C12.736 0.394669 12.7893 0.426669 12.832 0.512003C12.896 0.61867 12.9386 0.736003 12.96 0.864002C13.0026 0.992002 13.0453 1.13067 13.088 1.28C13.5786 2.83734 14.08 4.42667 14.592 6.048C15.1253 7.648 15.648 9.216 16.16 10.752C16.672 12.288 17.152 13.7173 17.6 15.04C18.048 16.3413 18.432 17.4827 18.752 18.464C18.9866 19.168 19.264 19.712 19.584 20.096C19.904 20.4587 20.2453 20.736 20.608 20.928C20.9706 21.0987 21.3653 21.2267 21.792 21.312C22.112 21.376 22.3466 21.472 22.496 21.6C22.6666 21.728 22.752 21.8773 22.752 22.048C22.752 22.176 22.6666 22.2613 22.496 22.304C22.3466 22.368 22.1546 22.4 21.92 22.4C21.5786 22.4 21.1306 22.3787 20.576 22.336C20.0213 22.3147 19.4453 22.2933 18.848 22.272C18.2506 22.2507 17.7066 22.24 17.216 22.24C16.8106 22.24 16.3626 22.24 15.872 22.24C15.3813 22.24 14.912 22.2507 14.464 22.272C14.0373 22.2933 13.664 22.304 13.344 22.304C13.088 22.304 12.8746 22.272 12.704 22.208C12.5546 22.1227 12.48 22.016 12.48 21.888C12.48 21.7173 12.576 21.5787 12.768 21.472C12.96 21.3653 13.184 21.2907 13.44 21.248C14.1653 21.12 14.688 20.928 15.008 20.672C15.3493 20.416 15.488 20.0747 15.424 19.648C15.4026 19.2853 15.328 18.8373 15.2 18.304C15.072 17.7493 14.9226 17.1733 14.752 16.576C14.5813 15.9573 14.4213 15.392 14.272 14.88C14.2293 14.7093 14.1546 14.6027 14.048 14.56C13.9413 14.5173 13.76 14.496 13.504 14.496H7.58397C7.4773 14.496 7.3813 14.5387 7.29597 14.624C7.21064 14.688 7.1253 14.8267 7.03997 15.04C6.97597 15.296 6.8693 15.6267 6.71997 16.032C6.59197 16.416 6.46397 16.832 6.33597 17.28C6.20797 17.7067 6.09064 18.112 5.98397 18.496C5.89864 18.8587 5.8453 19.1253 5.82397 19.296C5.75997 19.8293 5.88797 20.256 6.20797 20.576C6.5493 20.8747 7.05064 21.1093 7.71197 21.28C8.35197 21.4507 8.67197 21.664 8.67197 21.92C8.67197 22.0693 8.58664 22.176 8.41597 22.24C8.26664 22.2827 8.06397 22.304 7.80797 22.304C7.40264 22.304 6.9333 22.2933 6.39997 22.272C5.86664 22.2507 5.3013 22.24 4.70397 22.24C4.0213 22.24 3.35997 22.272 2.71997 22.336C2.07997 22.4 1.47197 22.432 0.89597 22.432ZM8.47997 13.184H13.152C13.4506 13.184 13.6 13.1307 13.6 13.024C13.6 12.96 13.5893 12.9067 13.568 12.864C13.568 12.8213 13.5573 12.7573 13.536 12.672L11.168 5.088C11.0613 4.74667 10.976 4.576 10.912 4.576C10.8693 4.576 10.7946 4.736 10.688 5.056L7.90397 12.672C7.8613 12.8 7.83997 12.8853 7.83997 12.928C7.83997 13.0347 7.8933 13.1093 7.99997 13.152C8.12797 13.1733 8.28797 13.184 8.47997 13.184ZM26.3247 22.392C26.1487 22.392 26.0047 22.36 25.8927 22.296C25.7807 22.232 25.7247 22.16 25.7247 22.08C25.7247 21.952 25.7887 21.856 25.9167 21.792C26.0447 21.712 26.1487 21.664 26.2287 21.648C26.8367 21.504 27.2847 21.32 27.5727 21.096C27.8767 20.872 28.0287 20.496 28.0287 19.968V8.904C28.0287 8.52 27.9887 8.24 27.9087 8.064C27.8287 7.872 27.6767 7.728 27.4527 7.632C27.2447 7.536 26.9407 7.448 26.5407 7.368C26.0767 7.272 25.8447 7.112 25.8447 6.888C25.8447 6.776 25.9007 6.696 26.0127 6.648C26.1407 6.6 26.2927 6.576 26.4687 6.576C26.8687 6.576 27.2287 6.584 27.5487 6.6C27.8687 6.616 28.1727 6.632 28.4607 6.648C28.7487 6.664 29.0687 6.672 29.4207 6.672C29.7887 6.672 30.1407 6.672 30.4767 6.672C30.8127 6.656 31.1567 6.64 31.5087 6.624C31.8607 6.608 32.2367 6.6 32.6367 6.6C32.8287 6.6 32.9727 6.624 33.0687 6.672C33.1807 6.704 33.2367 6.776 33.2367 6.888C33.2367 7.016 33.1807 7.12 33.0687 7.2C32.9567 7.264 32.7807 7.32 32.5407 7.368C31.9327 7.512 31.4527 7.672 31.1007 7.848C30.7487 8.008 30.5727 8.32 30.5727 8.784V19.896C30.5727 20.392 30.6767 20.752 30.8847 20.976C31.1087 21.184 31.5567 21.288 32.2287 21.288H35.0127C35.4287 21.288 35.7887 21.224 36.0927 21.096C36.4127 20.968 36.6607 20.824 36.8367 20.664C37.1407 20.392 37.3727 20.136 37.5327 19.896C37.7087 19.64 37.8927 19.304 38.0847 18.888C38.1647 18.712 38.2527 18.544 38.3487 18.384C38.4447 18.224 38.5487 18.144 38.6607 18.144C38.7727 18.144 38.8527 18.2 38.9007 18.312C38.9487 18.408 38.9727 18.504 38.9727 18.6C38.9727 18.632 38.9647 18.672 38.9487 18.72C38.9327 18.768 38.9247 18.816 38.9247 18.864C38.8127 19.296 38.7087 19.68 38.6127 20.016C38.5167 20.352 38.4367 20.672 38.3727 20.976C38.3247 21.28 38.2847 21.608 38.2527 21.96C38.2367 22.072 38.2047 22.176 38.1567 22.272C38.1087 22.352 38.0207 22.392 37.8927 22.392C37.2687 22.392 36.6047 22.384 35.9007 22.368C35.1967 22.352 34.4847 22.336 33.7647 22.32C33.0447 22.32 32.3327 22.312 31.6287 22.296C30.9407 22.28 30.2767 22.272 29.6367 22.272C29.2527 22.272 28.8207 22.28 28.3407 22.296C27.8767 22.312 27.4447 22.328 27.0447 22.344C26.6607 22.376 26.4207 22.392 26.3247 22.392ZM42.1398 22.368C41.9638 22.368 41.8118 22.344 41.6838 22.296C41.5718 22.264 41.5158 22.192 41.5158 22.08C41.5158 21.872 41.7478 21.72 42.2118 21.624C42.8198 21.512 43.2678 21.336 43.5558 21.096C43.8438 20.856 43.9878 20.464 43.9878 19.92V9.072C43.9878 8.528 43.8758 8.144 43.6518 7.92C43.4278 7.68 43.0118 7.496 42.4038 7.368C41.9398 7.272 41.7078 7.112 41.7078 6.888C41.7078 6.776 41.7638 6.696 41.8758 6.648C41.9878 6.6 42.1318 6.576 42.3078 6.576C42.7238 6.576 43.0918 6.584 43.4118 6.6C43.7478 6.616 44.0678 6.632 44.3718 6.648C44.6758 6.664 45.0038 6.672 45.3558 6.672C45.6918 6.672 46.0038 6.672 46.2918 6.672C46.5958 6.656 46.8998 6.64 47.2038 6.624C47.5238 6.608 47.8838 6.6 48.2838 6.6C48.4758 6.6 48.6278 6.624 48.7398 6.672C48.8518 6.704 48.9078 6.776 48.9078 6.888C48.9078 7.016 48.8438 7.12 48.7158 7.2C48.6038 7.264 48.4358 7.32 48.2118 7.368C47.5878 7.512 47.1478 7.696 46.8918 7.92C46.6518 8.144 46.5318 8.528 46.5318 9.072V19.92C46.5318 20.448 46.6838 20.832 46.9878 21.072C47.2918 21.312 47.7398 21.496 48.3318 21.624C48.5718 21.672 48.7478 21.728 48.8598 21.792C48.9718 21.856 49.0278 21.952 49.0278 22.08C49.0278 22.176 48.9718 22.248 48.8598 22.296C48.7638 22.344 48.6198 22.368 48.4278 22.368C48.0278 22.368 47.6598 22.352 47.3238 22.32C46.9878 22.304 46.6598 22.288 46.3398 22.272C46.0358 22.256 45.7078 22.248 45.3558 22.248C44.9718 22.248 44.6118 22.256 44.2758 22.272C43.9558 22.288 43.6198 22.304 43.2678 22.32C42.9158 22.352 42.5398 22.368 42.1398 22.368ZM61.0915 22.632C59.9395 22.632 58.8275 22.44 57.7555 22.056C56.6995 21.672 55.7635 21.128 54.9475 20.424C54.1315 19.72 53.4835 18.872 53.0035 17.88C52.5395 16.888 52.3075 15.784 52.3075 14.568C52.3075 13.432 52.5475 12.368 53.0275 11.376C53.5075 10.368 54.1715 9.496 55.0195 8.76C55.8835 8.008 56.8835 7.424 58.0195 7.008C59.1555 6.576 60.3875 6.36 61.7155 6.36C62.3075 6.36 62.8355 6.392 63.2995 6.456C63.7635 6.504 64.2115 6.576 64.6435 6.672C65.0755 6.768 65.5395 6.896 66.0355 7.056C66.2435 7.12 66.3955 7.208 66.4915 7.32C66.6035 7.432 66.6675 7.6 66.6835 7.824C66.7315 8.24 66.7715 8.672 66.8035 9.12C66.8515 9.568 66.8835 10.064 66.8995 10.608C66.8995 10.752 66.8355 10.856 66.7075 10.92C66.5955 10.984 66.4675 11 66.3235 10.968C66.1795 10.92 66.0835 10.808 66.0355 10.632C65.8915 10.104 65.7235 9.632 65.5315 9.216C65.3395 8.8 65.0595 8.456 64.6915 8.184C64.3235 7.896 63.8515 7.672 63.2755 7.512C62.7155 7.352 62.0835 7.272 61.3795 7.272C60.4835 7.272 59.6595 7.456 58.9075 7.824C58.1555 8.192 57.5155 8.696 56.9875 9.336C56.4595 9.96 56.0435 10.672 55.7395 11.472C55.4515 12.272 55.3075 13.104 55.3075 13.968C55.3075 14.976 55.4435 15.944 55.7155 16.872C56.0035 17.8 56.4115 18.624 56.9395 19.344C57.4835 20.064 58.1395 20.64 58.9075 21.072C59.6755 21.488 60.5395 21.696 61.4995 21.696C62.6515 21.696 63.6035 21.44 64.3555 20.928C65.1075 20.4 65.7395 19.648 66.2515 18.672C66.3635 18.448 66.5315 18.336 66.7555 18.336C66.9795 18.336 67.0915 18.464 67.0915 18.72C67.0915 18.88 67.0595 19.104 66.9955 19.392C66.9475 19.664 66.8755 19.968 66.7795 20.304C66.6835 20.624 66.5875 20.92 66.4915 21.192C66.3955 21.4 66.3075 21.544 66.2275 21.624C66.1475 21.704 65.9955 21.784 65.7715 21.864C65.1635 22.12 64.4435 22.312 63.6115 22.44C62.7955 22.568 61.9555 22.632 61.0915 22.632ZM71.6746 22.392C71.4826 22.392 71.3306 22.368 71.2186 22.32C71.1066 22.272 71.0506 22.2 71.0506 22.104C71.0506 21.896 71.2826 21.744 71.7466 21.648C72.3386 21.52 72.7626 21.344 73.0186 21.12C73.2906 20.88 73.4266 20.48 73.4266 19.92V9.072C73.4266 8.528 73.3146 8.136 73.0906 7.896C72.8666 7.656 72.4586 7.48 71.8666 7.368C71.6266 7.32 71.4506 7.256 71.3386 7.176C71.2266 7.096 71.1706 7 71.1706 6.888C71.1706 6.792 71.2266 6.72 71.3386 6.672C71.4506 6.608 71.6026 6.576 71.7946 6.576C72.3226 6.576 72.7946 6.584 73.2106 6.6C73.6426 6.616 74.0586 6.632 74.4586 6.648C74.8746 6.664 75.3226 6.672 75.8026 6.672C76.4426 6.672 77.1146 6.672 77.8186 6.672C78.5386 6.656 79.1866 6.64 79.7626 6.624C80.3066 6.624 80.7546 6.616 81.1066 6.6C81.4746 6.568 81.6906 6.552 81.7546 6.552C81.8506 6.552 81.9466 6.576 82.0426 6.624C82.1546 6.656 82.2186 6.728 82.2346 6.84C82.3146 7.336 82.3946 7.824 82.4746 8.304C82.5706 8.768 82.6186 9.176 82.6186 9.528C82.6186 9.688 82.5786 9.8 82.4986 9.864C82.4346 9.912 82.3626 9.936 82.2826 9.936C82.2026 9.936 82.1386 9.912 82.0906 9.864C82.0426 9.816 81.9946 9.744 81.9466 9.648C81.8346 9.328 81.7306 9.04 81.6346 8.784C81.5386 8.512 81.4266 8.312 81.2986 8.184C81.0906 7.96 80.8506 7.792 80.5786 7.68C80.3066 7.568 80.0026 7.512 79.6666 7.512H76.9786C76.7706 7.512 76.5466 7.592 76.3066 7.752C76.0826 7.896 75.9706 8.104 75.9706 8.376V13.272C75.9706 13.432 76.0186 13.56 76.1146 13.656C76.2106 13.752 76.3226 13.8 76.4506 13.8H78.7306C79.1946 13.8 79.5146 13.696 79.6906 13.488C79.8666 13.28 80.0106 12.96 80.1226 12.528C80.2346 12.208 80.3866 12.048 80.5786 12.048C80.6586 12.048 80.7306 12.088 80.7946 12.168C80.8586 12.232 80.8906 12.336 80.8906 12.48C80.8906 12.576 80.8826 12.736 80.8666 12.96C80.8506 13.184 80.8346 13.416 80.8186 13.656C80.8026 13.896 80.7946 14.088 80.7946 14.232C80.7946 14.408 80.7946 14.624 80.7946 14.88C80.8106 15.12 80.8266 15.36 80.8426 15.6C80.8586 15.84 80.8666 16.016 80.8666 16.128C80.8826 16.272 80.8666 16.392 80.8186 16.488C80.7866 16.568 80.7306 16.608 80.6506 16.608C80.3946 16.608 80.2026 16.376 80.0746 15.912C79.9786 15.496 79.8426 15.184 79.6666 14.976C79.5066 14.768 79.2666 14.664 78.9466 14.664H76.7146C76.4586 14.664 76.2666 14.704 76.1386 14.784C76.0266 14.864 75.9706 15.032 75.9706 15.288V19.872C75.9706 20.432 76.0906 20.824 76.3306 21.048C76.5706 21.256 76.9386 21.36 77.4346 21.36H79.3306C79.7786 21.36 80.1706 21.328 80.5066 21.264C80.8426 21.2 81.1306 21.08 81.3706 20.904C81.6426 20.712 81.8826 20.464 82.0906 20.16C82.2986 19.856 82.5146 19.48 82.7386 19.032C82.8026 18.936 82.8666 18.864 82.9306 18.816C82.9946 18.752 83.0666 18.728 83.1466 18.744C83.2426 18.744 83.3066 18.784 83.3386 18.864C83.3866 18.928 83.4106 19.016 83.4106 19.128C83.4106 19.304 83.3706 19.568 83.2906 19.92C83.2106 20.272 83.1066 20.64 82.9786 21.024C82.8666 21.408 82.7626 21.736 82.6666 22.008C82.6186 22.12 82.5626 22.208 82.4986 22.272C82.4346 22.352 82.3546 22.392 82.2586 22.392C81.6826 22.392 81.0826 22.384 80.4586 22.368C79.8346 22.352 79.1946 22.336 78.5386 22.32C77.8826 22.304 77.2266 22.288 76.5706 22.272C75.9146 22.256 75.2666 22.248 74.6266 22.248C74.2906 22.248 73.9706 22.256 73.6666 22.272C73.3626 22.304 73.0506 22.328 72.7306 22.344C72.4266 22.376 72.0746 22.392 71.6746 22.392ZM89.6432 22.912C89.0886 22.912 88.6086 22.7093 88.2032 22.304C87.7979 21.8987 87.5952 21.4187 87.5952 20.864C87.5952 20.2667 87.7979 19.776 88.2032 19.392C88.6086 18.9867 89.0886 18.784 89.6432 18.784C90.2192 18.784 90.6992 18.9867 91.0832 19.392C91.4886 19.776 91.6912 20.2667 91.6912 20.864C91.6912 21.4187 91.4886 21.8987 91.0832 22.304C90.6992 22.7093 90.2192 22.912 89.6432 22.912ZM99.8355 22.4C99.6008 22.4 99.3981 22.368 99.2275 22.304C99.0568 22.2613 98.9715 22.1653 98.9715 22.016C98.9715 21.8667 99.0568 21.7493 99.2275 21.664C99.3981 21.5573 99.6328 21.472 99.9315 21.408C100.742 21.2587 101.35 21.0133 101.755 20.672C102.161 20.3307 102.363 19.7867 102.363 19.04V6.368C102.363 5.42934 102.342 4.72534 102.299 4.256C102.257 3.76534 102.193 3.43467 102.107 3.264C102.022 3.072 101.905 2.95467 101.755 2.912C101.499 2.848 101.211 2.816 100.891 2.816C100.571 2.79467 100.198 2.784 99.7715 2.784H98.5235C97.9688 2.784 97.4141 2.912 96.8595 3.168C96.3261 3.40267 95.9208 3.744 95.6435 4.192C95.5581 4.32 95.4301 4.50134 95.2595 4.736C95.1101 4.94934 94.9395 5.14134 94.7475 5.312C94.5555 5.46134 94.3635 5.536 94.1715 5.536C94.0648 5.536 93.9795 5.49334 93.9155 5.408C93.8728 5.32267 93.8515 5.216 93.8515 5.088C93.8515 4.85334 93.9155 4.61867 94.0435 4.384C94.3848 3.70134 94.6301 3.104 94.7795 2.592C94.9288 2.08 95.0461 1.472 95.1315 0.768002C95.1741 0.426669 95.2595 0.213336 95.3875 0.128002C95.5155 0.0426687 95.6435 1.90735e-06 95.7715 1.90735e-06C95.8781 1.90735e-06 96.0168 0.138669 96.1875 0.416002C96.3795 0.672003 96.5288 0.885336 96.6355 1.056C96.8061 1.248 97.1261 1.39734 97.5955 1.504C98.0648 1.61067 98.5021 1.664 98.9075 1.664L110.459 1.632C111.121 1.632 111.665 1.58934 112.091 1.504C112.539 1.41867 112.902 1.312 113.179 1.184C113.478 1.03467 113.713 0.874669 113.883 0.704002C114.054 0.512002 114.278 0.416002 114.555 0.416002C114.641 0.416002 114.705 0.490669 114.747 0.640001C114.79 0.768002 114.811 0.917336 114.811 1.088C114.811 1.17333 114.801 1.30134 114.779 1.472C114.758 1.64267 114.737 1.78134 114.715 1.888C114.63 2.29334 114.545 2.61334 114.459 2.848C114.395 3.08267 114.342 3.30667 114.299 3.52C114.278 3.712 114.267 3.968 114.267 4.288V4.736C114.267 4.992 114.225 5.23734 114.139 5.472C114.054 5.70667 113.926 5.824 113.755 5.824C113.585 5.824 113.446 5.71734 113.339 5.504C113.233 5.26934 113.126 4.93867 113.019 4.512C112.891 3.95734 112.603 3.53067 112.155 3.232C111.729 2.93334 111.014 2.784 110.011 2.784H107.323C106.897 2.784 106.566 2.85867 106.331 3.008C106.097 3.136 105.937 3.456 105.851 3.968C105.787 4.45867 105.755 5.25867 105.755 6.368V19.04C105.755 19.7653 105.958 20.2987 106.363 20.64C106.79 20.9813 107.409 21.2373 108.219 21.408C108.518 21.472 108.742 21.5467 108.891 21.632C109.062 21.7173 109.147 21.8453 109.147 22.016C109.147 22.144 109.073 22.24 108.923 22.304C108.774 22.368 108.571 22.4 108.315 22.4C107.782 22.4 107.291 22.3787 106.843 22.336C106.395 22.3147 105.958 22.2933 105.531 22.272C105.105 22.2507 104.657 22.24 104.187 22.24C103.675 22.24 103.195 22.2507 102.747 22.272C102.299 22.2933 101.841 22.3147 101.371 22.336C100.902 22.3787 100.39 22.4 99.8355 22.4Z" fill="#E4D9B9"/>
</svg>
